999
dxflib 3.17.0.0
  0
SECTION
  2
HEADER
  9
$ACADVER
  1
AC1015
  9
$HANDSEED
  5
FFFF
  9
$INSUNITS
 70
4
  9
$DIMEXE
 40
1.25
  9
$TEXTSTYLE
  7
Standard
  9
$LIMMIN
 10
0.0
 20
0.0
  0
ENDSEC
  0
SECTION
  2
TABLES
  0
TABLE
  2
VPORT
  5
8
100
AcDbSymbolTable
 70
1
  0
VPORT
  5
30
100
AcDbSymbolTableRecord
100
AcDbViewportTableRecord
  2
*Active
 70
0
 10
0.0
 20
0.0
 11
1.0
 21
1.0
 12
286.30555555555549
 22
148.5
 13
0.0
 23
0.0
 14
10.0
 24
10.0
 15
10.0
 25
10.0
 16
0.0
 26
0.0
 36
1.0
 17
0.0
 27
0.0
 37
0.0
 40
297.0
 41
1.92798353909465
 42
50.0
 43
0.0
 44
0.0
 50
0.0
 51
0.0
 71
0
 72
100
 73
1
 74
3
 75
1
 76
1
 77
0
 78
0
281
0
 65
1
110
0.0
120
0.0
130
0.0
111
1.0
121
0.0
131
0.0
112
0.0
122
1.0
132
0.0
 79
0
146
0.0
  0
ENDTAB
  0
TABLE
  2
LTYPE
  5
5
100
AcDbSymbolTable
 70
25
  0
LTYPE
  5
14
100
AcDbSymbolTableRecord
100
AcDbLinetypeTableRecord
  2
BYBLOCK
 70
0
  3

 72
65
 73
0
 40
0.0
  0
LTYPE
  5
15
100
AcDbSymbolTableRecord
100
AcDbLinetypeTableRecord
  2
BYLAYER
 70
0
  3

 72
65
 73
0
 40
0.0
  0
LTYPE
  5
16
100
AcDbSymbolTableRecord
100
AcDbLinetypeTableRecord
  2
CONTINUOUS
 70
0
  3
Solid line
 72
65
 73
0
 40
0.0
  0
LTYPE
  5
31
100
AcDbSymbolTableRecord
100
AcDbLinetypeTableRecord
  2
ACAD_ISO02W100
 70
0
  3

 72
65
 73
0
 40
0.0
  0
LTYPE
  5
32
100
AcDbSymbolTableRecord
100
AcDbLinetypeTableRecord
  2
ACAD_ISO03W100
 70
0
  3

 72
65
 73
0
 40
0.0
  0
LTYPE
  5
33
100
AcDbSymbolTableRecord
100
AcDbLinetypeTableRecord
  2
ACAD_ISO04W100
 70
0
  3

 72
65
 73
0
 40
0.0
  0
LTYPE
  5
34
100
AcDbSymbolTableRecord
100
AcDbLinetypeTableRecord
  2
ACAD_ISO05W100
 70
0
  3

 72
65
 73
0
 40
0.0
  0
LTYPE
  5
35
100
AcDbSymbolTableRecord
100
AcDbLinetypeTableRecord
  2
BORDER
 70
0
  3

 72
65
 73
0
 40
0.0
  0
LTYPE
  5
36
100
AcDbSymbolTableRecord
100
AcDbLinetypeTableRecord
  2
BORDER2
 70
0
  3

 72
65
 73
0
 40
0.0
  0
LTYPE
  5
37
100
AcDbSymbolTableRecord
100
AcDbLinetypeTableRecord
  2
BORDERX2
 70
0
  3

 72
65
 73
0
 40
0.0
  0
LTYPE
  5
38
100
AcDbSymbolTableRecord
100
AcDbLinetypeTableRecord
  2
CENTER
 70
0
  3

 72
65
 73
0
 40
0.0
  0
LTYPE
  5
39
100
AcDbSymbolTableRecord
100
AcDbLinetypeTableRecord
  2
CENTER2
 70
0
  3

 72
65
 73
0
 40
0.0
  0
LTYPE
  5
3A
100
AcDbSymbolTableRecord
100
AcDbLinetypeTableRecord
  2
CENTERX2
 70
0
  3

 72
65
 73
0
 40
0.0
  0
LTYPE
  5
3B
100
AcDbSymbolTableRecord
100
AcDbLinetypeTableRecord
  2
DASHDOT
 70
0
  3

 72
65
 73
0
 40
0.0
  0
LTYPE
  5
3C
100
AcDbSymbolTableRecord
100
AcDbLinetypeTableRecord
  2
DASHDOT2
 70
0
  3

 72
65
 73
0
 40
0.0
  0
LTYPE
  5
3D
100
AcDbSymbolTableRecord
100
AcDbLinetypeTableRecord
  2
DASHDOTX2
 70
0
  3

 72
65
 73
0
 40
0.0
  0
LTYPE
  5
3E
100
AcDbSymbolTableRecord
100
AcDbLinetypeTableRecord
  2
DASHED
 70
0
  3

 72
65
 73
0
 40
0.0
  0
LTYPE
  5
3F
100
AcDbSymbolTableRecord
100
AcDbLinetypeTableRecord
  2
DASHED2
 70
0
  3

 72
65
 73
0
 40
0.0
  0
LTYPE
  5
40
100
AcDbSymbolTableRecord
100
AcDbLinetypeTableRecord
  2
DASHEDX2
 70
0
  3

 72
65
 73
0
 40
0.0
  0
LTYPE
  5
41
100
AcDbSymbolTableRecord
100
AcDbLinetypeTableRecord
  2
DIVIDE
 70
0
  3

 72
65
 73
0
 40
0.0
  0
LTYPE
  5
42
100
AcDbSymbolTableRecord
100
AcDbLinetypeTableRecord
  2
DIVIDE2
 70
0
  3

 72
65
 73
0
 40
0.0
  0
LTYPE
  5
43
100
AcDbSymbolTableRecord
100
AcDbLinetypeTableRecord
  2
DIVIDEX2
 70
0
  3

 72
65
 73
0
 40
0.0
  0
LTYPE
  5
44
100
AcDbSymbolTableRecord
100
AcDbLinetypeTableRecord
  2
DOT
 70
0
  3

 72
65
 73
0
 40
0.0
  0
LTYPE
  5
45
100
AcDbSymbolTableRecord
100
AcDbLinetypeTableRecord
  2
DOT2
 70
0
  3

 72
65
 73
0
 40
0.0
  0
LTYPE
  5
46
100
AcDbSymbolTableRecord
100
AcDbLinetypeTableRecord
  2
DOTX2
 70
0
  3

 72
65
 73
0
 40
0.0
  0
ENDTAB
  0
TABLE
  2
LAYER
  5
2
100
AcDbSymbolTable
 70
1
  0
LAYER
  5
10
100
AcDbSymbolTableRecord
100
AcDbLayerTableRecord
  2
0
 70
0
 62
-1
420
0
  6
CONTINUOUS
370
1
390
F
  0
ENDTAB
  0
STYLE
  5
47
100
AcDbSymbolTableRecord
100
AcDbTextStyleTableRecord
  2

 70
0
 40
0.0
 41
0.0
 50
0.0
 71
0
 42
0.0
  3

  4

1001
ACAD
1000

1071
0
  0
TABLE
  2
VIEW
  5
6
100
AcDbSymbolTable
 70
0
  0
ENDTAB
  0
TABLE
  2
UCS
  5
7
100
AcDbSymbolTable
 70
0
  0
ENDTAB
  0
TABLE
  2
APPID
  5
9
100
AcDbSymbolTable
 70
1
  0
APPID
  5
12
100
AcDbSymbolTableRecord
100
AcDbRegAppTableRecord
  2
ACAD
 70
0
  0
ENDTAB
  0
TABLE
  2
DIMSTYLE
  5
A
100
AcDbSymbolTable
 70
1
100
AcDbDimStyleTable
 71
0
  0
DIMSTYLE
105
27
100
AcDbSymbolTableRecord
100
AcDbDimStyleTableRecord
  2
Standard
 41
1.0
 42
1.0
 43
3.75
 44
1.0
 70
0
 73
0
 74
0
 77
1
 78
8
140
1.0
141
2.5
143
0.03937007874016
147
1.0
171
3
172
1
271
2
272
2
274
3
278
44
283
0
284
8
340
40000000
  0
ENDTAB
  0
TABLE
  2
BLOCK_RECORD
  5
1
100
AcDbSymbolTable
 70
1
  0
BLOCK_RECORD
  5
1F
100
AcDbSymbolTableRecord
100
AcDbBlockTableRecord
  2
*Model_Space
340
22
  0
BLOCK_RECORD
  5
1B
100
AcDbSymbolTableRecord
100
AcDbBlockTableRecord
  2
*Paper_Space
340
1E
  0
BLOCK_RECORD
  5
23
100
AcDbSymbolTableRecord
100
AcDbBlockTableRecord
  2
*Paper_Space0
340
26
  0
BLOCK_RECORD
  5
48
100
AcDbSymbolTableRecord
100
AcDbBlockTableRecord
  2
myblock1
340
0
  0
BLOCK_RECORD
  5
49
100
AcDbSymbolTableRecord
100
AcDbBlockTableRecord
  2
myblock2
340
0
  0
ENDTAB
  0
ENDSEC
  0
SECTION
  2
BLOCKS
  0
BLOCK
  5
20
100
AcDbEntity
  8
0
100
AcDbBlockBegin
  2
*Model_Space
 70
0
 10
0.0
 20
0.0
 30
0.0
  3
*Model_Space
  1

  0
ENDBLK
  5
21
100
AcDbEntity
  8
0
100
AcDbBlockEnd
  0
BLOCK
  5
1C
100
AcDbEntity
 67
1
  8
0
100
AcDbBlockBegin
  2
*Paper_Space
 70
0
 10
0.0
 20
0.0
 30
0.0
  3
*Paper_Space
  1

  0
ENDBLK
  5
1D
100
AcDbEntity
 67
1
  8
0
100
AcDbBlockEnd
  0
BLOCK
  5
24
100
AcDbEntity
  8
0
100
AcDbBlockBegin
  2
*Paper_Space0
 70
0
 10
0.0
 20
0.0
 30
0.0
  3
*Paper_Space0
  1

  0
ENDBLK
  5
25
100
AcDbEntity
  8
0
100
AcDbBlockEnd
  0
BLOCK
  5
4A
100
AcDbEntity
  8
0
100
AcDbBlockBegin
  2
myblock1
 70
0
 10
0.0
 20
0.0
 30
0.0
  3
myblock1
  1

  0
ENDBLK
  5
4B
100
AcDbEntity
  8
0
100
AcDbBlockEnd
  0
BLOCK
  5
4C
100
AcDbEntity
  8
0
100
AcDbBlockBegin
  2
myblock2
 70
0
 10
0.0
 20
0.0
 30
0.0
  3
myblock2
  1

  0
ENDBLK
  5
4D
100
AcDbEntity
  8
0
100
AcDbBlockEnd
  0
ENDSEC
  0
SECTION
  2
ENTITIES
  0
LWPOLYLINE
  5
4E
100
AcDbEntity
  8
0
 62
-1
420
0
370
1
 48
1.0
  6
CONTINUOUS
100
AcDbPolyline
 90
122
 70
0
 10
234.33604431152344
 20
172.43893432617187
 30
0.0
 10
206.61659240722656
 20
188.44273376464844
 30
0.0
 10
206.75999450683594
 20
188.72517395019531
 30
0.0
 10
206.90998840332031
 20
189.05767822265625
 30
0.0
 10
207.04498291015625
 20
189.39767456054687
 30
0.0
 10
207.16249084472656
 20
189.74517822265625
 30
0.0
 10
207.26248168945312
 20
190.10267639160156
 30
0.0
 10
207.34748840332031
 20
190.46516418457031
 30
0.0
 10
207.41249084472656
 20
190.83267211914062
 30
0.0
 10
207.45999145507812
 20
191.20767211914062
 30
0.0
 10
207.489990234375
 20
191.59016418457031
 30
0.0
 10
207.49998474121094
 20
191.97517395019531
 30
0.0
 10
207.489990234375
 20
192.36016845703125
 30
0.0
 10
207.46249389648437
 20
192.74267578125
 30
0.0
 10
207.41249084472656
 20
193.11767578125
 30
0.0
 10
207.34748840332031
 20
193.4876708984375
 30
0.0
 10
207.26498413085937
 20
193.85017395019531
 30
0.0
 10
207.16249084472656
 20
194.20516967773437
 30
0.0
 10
207.04498291015625
 20
194.55517578125
 30
0.0
 10
206.90998840332031
 20
194.89517211914062
 30
0.0
 10
206.75999450683594
 20
195.22767639160156
 30
0.0
 10
206.59498596191406
 20
195.5501708984375
 30
0.0
 10
206.21998596191406
 20
196.16766357421875
 30
0.0
 10
205.78749084472656
 20
196.74517822265625
 30
0.0
 10
205.302490234375
 20
197.27766418457031
 30
0.0
 10
204.76998901367188
 20
197.76266479492187
 30
0.0
 10
204.19248962402344
 20
198.19517517089844
 30
0.0
 10
203.57498168945312
 20
198.57017517089844
 30
0.0
 10
203.25248718261719
 20
198.73516845703125
 30
0.0
 10
202.91998291015625
 20
198.88517761230469
 30
0.0
 10
202.57748413085937
 20
199.02017211914062
 30
0.0
 10
202.22998046875
 20
199.13766479492187
 30
0.0
 10
202.08477783203125
 20
199.17959594726562
 30
0.0
 10
202.08477783203125
 20
212.84846496582031
 30
0.0
 10
201.09310913085937
 20
212.84846496582031
 30
0.0
 10
201.09310913085937
 20
199.39637756347656
 30
0.0
 10
201.03007507324219
 20
199.40431213378906
 30
0.0
 10
201.03005981445312
 20
217.961669921875
 30
0.0
 10
200.03839111328125
 20
217.961669921875
 30
0.0
 10
200.03840637207031
 20
199.47418212890625
 30
0.0
 10
199.99998474121094
 20
199.47517395019531
 30
0.0
 10
199.97543334960937
 20
199.47453308105469
 30
0.0
 10
199.97537231445312
 20
219.96563720703125
 30
0.0
 10
198.98370361328125
 20
219.96563720703125
 30
0.0
 10
198.98377990722656
 20
199.40451049804687
 30
0.0
 10
198.91122436523437
 20
199.39483642578125
 30
0.0
 10
198.91117858886719
 20
215.46168518066406
 30
0.0
 10
197.91950988769531
 20
215.46168518066406
 30
0.0
 10
197.9195556640625
 20
199.18084716796875
 30
0.0
 10
197.76998901367187
 20
199.13766479492187
 30
0.0
 10
197.41998291015625
 20
199.02017211914062
 30
0.0
 10
197.07998657226562
 20
198.88517761230469
 30
0.0
 10
196.74748229980469
 20
198.73516845703125
 30
0.0
 10
196.42498779296875
 20
198.57017517089844
 30
0.0
 10
195.8074951171875
 20
198.19517517089844
 30
0.0
 10
195.22998046875
 20
197.76266479492187
 30
0.0
 10
194.69749450683594
 20
197.27766418457031
 30
0.0
 10
194.21249389648437
 20
196.74517822265625
 30
0.0
 10
193.77998352050781
 20
196.16766357421875
 30
0.0
 10
193.40498352050781
 20
195.5501708984375
 30
0.0
 10
193.239990234375
 20
195.22767639160156
 30
0.0
 10
193.08998107910156
 20
194.89517211914062
 30
0.0
 10
192.95498657226562
 20
194.55517578125
 30
0.0
 10
192.83749389648437
 20
194.20516967773437
 30
0.0
 10
192.7349853515625
 20
193.85017395019531
 30
0.0
 10
192.65248107910156
 20
193.4876708984375
 30
0.0
 10
192.58499145507812
 20
193.11767578125
 30
0.0
 10
192.53749084472656
 20
192.74267578125
 30
0.0
 10
192.50999450683594
 20
192.3626708984375
 30
0.0
 10
192.49998474121094
 20
191.97517395019531
 30
0.0
 10
192.50999450683594
 20
191.59016418457031
 30
0.0
 10
192.53749084472656
 20
191.20767211914062
 30
0.0
 10
192.58749389648437
 20
190.83267211914062
 30
0.0
 10
192.65248107910156
 20
190.46516418457031
 30
0.0
 10
192.7349853515625
 20
190.10267639160156
 30
0.0
 10
192.83749389648437
 20
189.74517822265625
 30
0.0
 10
192.84194946289062
 20
189.73202514648438
 30
0.0
 10
175.10423278808594
 20
179.49114990234375
 30
0.0
 10
175.60006713867187
 20
178.63233947753906
 30
0.0
 10
193.20721435546875
 20
188.79783630371094
 30
0.0
 10
193.239990234375
 20
188.72517395019531
 30
0.0
 10
193.27110290527344
 20
188.66389465332031
 30
0.0
 10
170.9072265625
 20
175.75212097167969
 30
0.0
 10
171.40306091308594
 20
174.893310546875
 30
0.0
 10
193.76651000976562
 20
187.80485534667969
 30
0.0
 10
193.77998352050781
 20
187.78266906738281
 30
0.0
 10
193.84822082519531
 20
187.69155883789062
 30
0.0
 10
173.70680236816406
 20
176.0628662109375
 30
0.0
 10
174.20263671875
 20
175.20405578613281
 30
0.0
 10
194.48013305664062
 20
186.91131591796875
 30
0.0
 10
194.69749450683594
 20
186.67266845703125
 30
0.0
 10
195.22998046875
 20
186.18766784667969
 30
0.0
 10
195.8074951171875
 20
185.75767517089844
 30
0.0
 10
196.42498779296875
 20
185.38017272949219
 30
0.0
 10
196.74748229980469
 20
185.21516418457031
 30
0.0
 10
197.07998657226562
 20
185.06517028808594
 30
0.0
 10
197.41998291015625
 20
184.93017578125
 30
0.0
 10
197.76998901367187
 20
184.81266784667969
 30
0.0
 10
198.12498474121094
 20
184.71017456054687
 30
0.0
 10
198.48748779296875
 20
184.62767028808594
 30
0.0
 10
198.85748291015625
 20
184.56266784667969
 30
0.0
 10
199.23248291015625
 20
184.51266479492187
 30
0.0
 10
199.61248779296875
 20
184.48516845703125
 30
0.0
 10
199.99998474121094
 20
184.47517395019531
 30
0.0
 10
200.38499450683594
 20
184.48516845703125
 30
0.0
 10
200.76748657226562
 20
184.51266479492187
 30
0.0
 10
201.14248657226562
 20
184.56266784667969
 30
0.0
 10
201.51248168945312
 20
184.62767028808594
 30
0.0
 10
201.87498474121094
 20
184.71267700195312
 30
0.0
 10
202.22998046875
 20
184.81266784667969
 30
0.0
 10
202.57998657226562
 20
184.93017578125
 30
0.0
 10
202.91998291015625
 20
185.06517028808594
 30
0.0
 10
203.25248718261719
 20
185.21516418457031
 30
0.0
 10
203.57498168945312
 20
185.38017272949219
 30
0.0
 10
204.19248962402344
 20
185.75767517089844
 30
0.0
 10
204.76998901367188
 20
186.18766784667969
 30
0.0
 10
205.302490234375
 20
186.67266845703125
 30
0.0
 10
205.78749084472656
 20
187.20516967773437
 30
0.0
 10
206.21998596191406
 20
187.78266906738281
 30
0.0
 10
206.36228942871094
 20
188.01699829101562
 30
0.0
 10
234.08815002441406
 20
172.009521484375
 30
0.0
 10
234.33604431152344
 20
172.43893432617187
 30
0.0
  0
ENDSEC
  0
SECTION
  2
OBJECTS
  0
DICTIONARY
  5
C
100
AcDbDictionary
280
0
281
1
  3
ACAD_GROUP
350
D
  3
ACAD_LAYOUT
350
1A
  3
ACAD_MLINESTYLE
350
17
  3
ACAD_PLOTSETTINGS
350
19
  3
ACAD_PLOTSTYLENAME
350
E
  3
AcDbVariableDictionary
350
4F
  0
DICTIONARY
  5
D
100
AcDbDictionary
280
0
281
1
  0
ACDBDICTIONARYWDFLT
  5
E
100
AcDbDictionary
281
1
  3
Normal
350
F
100
AcDbDictionaryWithDefault
340
F
  0
ACDBPLACEHOLDER
  5
F
  0
DICTIONARY
  5
17
100
AcDbDictionary
280
0
281
1
  3
Standard
350
18
  0
MLINESTYLE
  5
18
100
AcDbMlineStyle
  2
STANDARD
 70
0
  3

 62
256
 51
90.0
 52
90.0
 71
2
 49
0.5
 62
256
  6
BYLAYER
 49
-0.5
 62
256
  6
BYLAYER
  0
DICTIONARY
  5
19
100
AcDbDictionary
280
0
281
1
  0
DICTIONARY
  5
1A
100
AcDbDictionary
281
1
  3
Layout1
350
1E
  3
Layout2
350
26
  3
Model
350
22
  0
LAYOUT
  5
1E
100
AcDbPlotSettings
  1

  2
none_device
  4

  6

 40
0.0
 41
0.0
 42
0.0
 43
0.0
 44
0.0
 45
0.0
 46
0.0
 47
0.0
 48
0.0
 49
0.0
140
0.0
141
0.0
142
1.0
143
1.0
 70
688
 72
0
 73
0
 74
5
  7

 75
16
147
1.0
148
0.0
149
0.0
100
AcDbLayout
  1
Layout1
 70
1
 71
1
 10
0.0
 20
0.0
 11
420.0
 21
297.0
 12
0.0
 22
0.0
 32
0.0
 14
100000000000000000000.0
 24
100000000000000000000.0
 34
100000000000000000000.0
 15
-100000000000000000000.0
 25
-100000000000000000000.0
 35
-100000000000000000000.0
146
0.0
 13
0.0
 23
0.0
 33
0.0
 16
1.0
 26
0.0
 36
0.0
 17
0.0
 27
1.0
 37
0.0
 76
0
330
1B
  0
LAYOUT
  5
22
100
AcDbPlotSettings
  1

  2
none_device
  4

  6

 40
0.0
 41
0.0
 42
0.0
 43
0.0
 44
0.0
 45
0.0
 46
0.0
 47
0.0
 48
0.0
 49
0.0
140
0.0
141
0.0
142
1.0
143
1.0
 70
1712
 72
0
 73
0
 74
0
  7

 75
0
147
1.0
148
0.0
149
0.0
100
AcDbLayout
  1
Model
 70
1
 71
0
 10
0.0
 20
0.0
 11
12.0
 21
9.0
 12
0.0
 22
0.0
 32
0.0
 14
0.0
 24
0.0
 34
0.0
 15
0.0
 25
0.0
 35
0.0
146
0.0
 13
0.0
 23
0.0
 33
0.0
 16
1.0
 26
0.0
 36
0.0
 17
0.0
 27
1.0
 37
0.0
 76
0
330
1F
  0
LAYOUT
  5
26
100
AcDbPlotSettings
  1

  2
none_device
  4

  6

 40
0.0
 41
0.0
 42
0.0
 43
0.0
 44
0.0
 45
0.0
 46
0.0
 47
0.0
 48
0.0
 49
0.0
140
0.0
141
0.0
142
1.0
143
1.0
 70
688
 72
0
 73
0
 74
5
  7

 75
16
147
1.0
148
0.0
149
0.0
100
AcDbLayout
  1
Layout2
 70
1
 71
2
 10
0.0
 20
0.0
 11
12.0
 21
9.0
 12
0.0
 22
0.0
 32
0.0
 14
0.0
 24
0.0
 34
0.0
 15
0.0
 25
0.0
 35
0.0
146
0.0
 13
0.0
 23
0.0
 33
0.0
 16
1.0
 26
0.0
 36
0.0
 17
0.0
 27
1.0
 37
0.0
 76
0
330
23
  0
DICTIONARY
  5
4F
100
AcDbDictionary
281
1
  3
DIMASSOC
350
51
  3
HIDETEXT
350
50
  0
DICTIONARYVAR
  5
50
100
DictionaryVariables
280
0
  1
2
  0
DICTIONARYVAR
  5
51
100
DictionaryVariables
280
0
  1
1
  0
ENDSEC
  0
EOF
