999
dxflib 3.17.0.0
  0
SECTION
  2
HEADER
  9
$ACADVER
  1
AC1015
  9
$HANDSEED
  5
FFFF
  9
$INSUNITS
 70
4
  9
$DIMEXE
 40
1.25
  9
$TEXTSTYLE
  7
Standard
  9
$LIMMIN
 10
0.0
 20
0.0
  0
ENDSEC
  0
SECTION
  2
TABLES
  0
TABLE
  2
VPORT
  5
8
100
AcDbSymbolTable
 70
1
  0
VPORT
  5
30
100
AcDbSymbolTableRecord
100
AcDbViewportTableRecord
  2
*Active
 70
0
 10
0.0
 20
0.0
 11
1.0
 21
1.0
 12
286.30555555555549
 22
148.5
 13
0.0
 23
0.0
 14
10.0
 24
10.0
 15
10.0
 25
10.0
 16
0.0
 26
0.0
 36
1.0
 17
0.0
 27
0.0
 37
0.0
 40
297.0
 41
1.92798353909465
 42
50.0
 43
0.0
 44
0.0
 50
0.0
 51
0.0
 71
0
 72
100
 73
1
 74
3
 75
1
 76
1
 77
0
 78
0
281
0
 65
1
110
0.0
120
0.0
130
0.0
111
1.0
121
0.0
131
0.0
112
0.0
122
1.0
132
0.0
 79
0
146
0.0
  0
ENDTAB
  0
TABLE
  2
LTYPE
  5
5
100
AcDbSymbolTable
 70
25
  0
LTYPE
  5
14
100
AcDbSymbolTableRecord
100
AcDbLinetypeTableRecord
  2
BYBLOCK
 70
0
  3

 72
65
 73
0
 40
0.0
  0
LTYPE
  5
15
100
AcDbSymbolTableRecord
100
AcDbLinetypeTableRecord
  2
BYLAYER
 70
0
  3

 72
65
 73
0
 40
0.0
  0
LTYPE
  5
16
100
AcDbSymbolTableRecord
100
AcDbLinetypeTableRecord
  2
CONTINUOUS
 70
0
  3
Solid line
 72
65
 73
0
 40
0.0
  0
LTYPE
  5
31
100
AcDbSymbolTableRecord
100
AcDbLinetypeTableRecord
  2
ACAD_ISO02W100
 70
0
  3

 72
65
 73
0
 40
0.0
  0
LTYPE
  5
32
100
AcDbSymbolTableRecord
100
AcDbLinetypeTableRecord
  2
ACAD_ISO03W100
 70
0
  3

 72
65
 73
0
 40
0.0
  0
LTYPE
  5
33
100
AcDbSymbolTableRecord
100
AcDbLinetypeTableRecord
  2
ACAD_ISO04W100
 70
0
  3

 72
65
 73
0
 40
0.0
  0
LTYPE
  5
34
100
AcDbSymbolTableRecord
100
AcDbLinetypeTableRecord
  2
ACAD_ISO05W100
 70
0
  3

 72
65
 73
0
 40
0.0
  0
LTYPE
  5
35
100
AcDbSymbolTableRecord
100
AcDbLinetypeTableRecord
  2
BORDER
 70
0
  3

 72
65
 73
0
 40
0.0
  0
LTYPE
  5
36
100
AcDbSymbolTableRecord
100
AcDbLinetypeTableRecord
  2
BORDER2
 70
0
  3

 72
65
 73
0
 40
0.0
  0
LTYPE
  5
37
100
AcDbSymbolTableRecord
100
AcDbLinetypeTableRecord
  2
BORDERX2
 70
0
  3

 72
65
 73
0
 40
0.0
  0
LTYPE
  5
38
100
AcDbSymbolTableRecord
100
AcDbLinetypeTableRecord
  2
CENTER
 70
0
  3

 72
65
 73
0
 40
0.0
  0
LTYPE
  5
39
100
AcDbSymbolTableRecord
100
AcDbLinetypeTableRecord
  2
CENTER2
 70
0
  3

 72
65
 73
0
 40
0.0
  0
LTYPE
  5
3A
100
AcDbSymbolTableRecord
100
AcDbLinetypeTableRecord
  2
CENTERX2
 70
0
  3

 72
65
 73
0
 40
0.0
  0
LTYPE
  5
3B
100
AcDbSymbolTableRecord
100
AcDbLinetypeTableRecord
  2
DASHDOT
 70
0
  3

 72
65
 73
0
 40
0.0
  0
LTYPE
  5
3C
100
AcDbSymbolTableRecord
100
AcDbLinetypeTableRecord
  2
DASHDOT2
 70
0
  3

 72
65
 73
0
 40
0.0
  0
LTYPE
  5
3D
100
AcDbSymbolTableRecord
100
AcDbLinetypeTableRecord
  2
DASHDOTX2
 70
0
  3

 72
65
 73
0
 40
0.0
  0
LTYPE
  5
3E
100
AcDbSymbolTableRecord
100
AcDbLinetypeTableRecord
  2
DASHED
 70
0
  3

 72
65
 73
0
 40
0.0
  0
LTYPE
  5
3F
100
AcDbSymbolTableRecord
100
AcDbLinetypeTableRecord
  2
DASHED2
 70
0
  3

 72
65
 73
0
 40
0.0
  0
LTYPE
  5
40
100
AcDbSymbolTableRecord
100
AcDbLinetypeTableRecord
  2
DASHEDX2
 70
0
  3

 72
65
 73
0
 40
0.0
  0
LTYPE
  5
41
100
AcDbSymbolTableRecord
100
AcDbLinetypeTableRecord
  2
DIVIDE
 70
0
  3

 72
65
 73
0
 40
0.0
  0
LTYPE
  5
42
100
AcDbSymbolTableRecord
100
AcDbLinetypeTableRecord
  2
DIVIDE2
 70
0
  3

 72
65
 73
0
 40
0.0
  0
LTYPE
  5
43
100
AcDbSymbolTableRecord
100
AcDbLinetypeTableRecord
  2
DIVIDEX2
 70
0
  3

 72
65
 73
0
 40
0.0
  0
LTYPE
  5
44
100
AcDbSymbolTableRecord
100
AcDbLinetypeTableRecord
  2
DOT
 70
0
  3

 72
65
 73
0
 40
0.0
  0
LTYPE
  5
45
100
AcDbSymbolTableRecord
100
AcDbLinetypeTableRecord
  2
DOT2
 70
0
  3

 72
65
 73
0
 40
0.0
  0
LTYPE
  5
46
100
AcDbSymbolTableRecord
100
AcDbLinetypeTableRecord
  2
DOTX2
 70
0
  3

 72
65
 73
0
 40
0.0
  0
ENDTAB
  0
TABLE
  2
LAYER
  5
2
100
AcDbSymbolTable
 70
1
  0
LAYER
  5
10
100
AcDbSymbolTableRecord
100
AcDbLayerTableRecord
  2
0
 70
0
 62
-1
420
0
  6
CONTINUOUS
370
1
390
F
  0
ENDTAB
  0
STYLE
  5
47
100
AcDbSymbolTableRecord
100
AcDbTextStyleTableRecord
  2

 70
0
 40
0.0
 41
0.0
 50
0.0
 71
0
 42
0.0
  3

  4

1001
ACAD
1000

1071
0
  0
TABLE
  2
VIEW
  5
6
100
AcDbSymbolTable
 70
0
  0
ENDTAB
  0
TABLE
  2
UCS
  5
7
100
AcDbSymbolTable
 70
0
  0
ENDTAB
  0
TABLE
  2
APPID
  5
9
100
AcDbSymbolTable
 70
1
  0
APPID
  5
12
100
AcDbSymbolTableRecord
100
AcDbRegAppTableRecord
  2
ACAD
 70
0
  0
ENDTAB
  0
TABLE
  2
DIMSTYLE
  5
A
100
AcDbSymbolTable
 70
1
100
AcDbDimStyleTable
 71
0
  0
DIMSTYLE
105
27
100
AcDbSymbolTableRecord
100
AcDbDimStyleTableRecord
  2
Standard
 41
1.0
 42
1.0
 43
3.75
 44
1.0
 70
0
 73
0
 74
0
 77
1
 78
8
140
1.0
141
2.5
143
0.03937007874016
147
1.0
171
3
172
1
271
2
272
2
274
3
278
44
283
0
284
8
340
40000000
  0
ENDTAB
  0
TABLE
  2
BLOCK_RECORD
  5
1
100
AcDbSymbolTable
 70
1
  0
BLOCK_RECORD
  5
1F
100
AcDbSymbolTableRecord
100
AcDbBlockTableRecord
  2
*Model_Space
340
22
  0
BLOCK_RECORD
  5
1B
100
AcDbSymbolTableRecord
100
AcDbBlockTableRecord
  2
*Paper_Space
340
1E
  0
BLOCK_RECORD
  5
23
100
AcDbSymbolTableRecord
100
AcDbBlockTableRecord
  2
*Paper_Space0
340
26
  0
BLOCK_RECORD
  5
48
100
AcDbSymbolTableRecord
100
AcDbBlockTableRecord
  2
myblock1
340
0
  0
BLOCK_RECORD
  5
49
100
AcDbSymbolTableRecord
100
AcDbBlockTableRecord
  2
myblock2
340
0
  0
ENDTAB
  0
ENDSEC
  0
SECTION
  2
BLOCKS
  0
BLOCK
  5
20
100
AcDbEntity
  8
0
100
AcDbBlockBegin
  2
*Model_Space
 70
0
 10
0.0
 20
0.0
 30
0.0
  3
*Model_Space
  1

  0
ENDBLK
  5
21
100
AcDbEntity
  8
0
100
AcDbBlockEnd
  0
BLOCK
  5
1C
100
AcDbEntity
 67
1
  8
0
100
AcDbBlockBegin
  2
*Paper_Space
 70
0
 10
0.0
 20
0.0
 30
0.0
  3
*Paper_Space
  1

  0
ENDBLK
  5
1D
100
AcDbEntity
 67
1
  8
0
100
AcDbBlockEnd
  0
BLOCK
  5
24
100
AcDbEntity
  8
0
100
AcDbBlockBegin
  2
*Paper_Space0
 70
0
 10
0.0
 20
0.0
 30
0.0
  3
*Paper_Space0
  1

  0
ENDBLK
  5
25
100
AcDbEntity
  8
0
100
AcDbBlockEnd
  0
BLOCK
  5
4A
100
AcDbEntity
  8
0
100
AcDbBlockBegin
  2
myblock1
 70
0
 10
0.0
 20
0.0
 30
0.0
  3
myblock1
  1

  0
ENDBLK
  5
4B
100
AcDbEntity
  8
0
100
AcDbBlockEnd
  0
BLOCK
  5
4C
100
AcDbEntity
  8
0
100
AcDbBlockBegin
  2
myblock2
 70
0
 10
0.0
 20
0.0
 30
0.0
  3
myblock2
  1

  0
ENDBLK
  5
4D
100
AcDbEntity
  8
0
100
AcDbBlockEnd
  0
ENDSEC
  0
SECTION
  2
ENTITIES
  0
LWPOLYLINE
  5
4E
100
AcDbEntity
  8
0
 62
-1
420
0
370
1
 48
1.0
  6
CONTINUOUS
100
AcDbPolyline
 90
258
 70
0
 10
162.74748229980469
 20
199.9949951171875
 30
0.0
 10
162.75999450683594
 20
199.03248596191406
 30
0.0
 10
162.79498291015625
 20
198.07748413085937
 30
0.0
 10
162.85499572753906
 20
197.12748718261719
 30
0.0
 10
162.93998718261719
 20
196.18498229980469
 30
0.0
 10
163.0474853515625
 20
195.24998474121094
 30
0.0
 10
163.177490234375
 20
194.32249450683594
 30
0.0
 10
163.32998657226562
 20
193.39999389648437
 30
0.0
 10
163.50498962402344
 20
192.48748779296875
 30
0.0
 10
163.70248413085937
 20
191.58248901367187
 30
0.0
 10
163.91998291015625
 20
190.68498229980469
 30
0.0
 10
164.15998840332031
 20
189.7974853515625
 30
0.0
 10
164.4224853515625
 20
188.91749572753906
 30
0.0
 10
164.70498657226562
 20
188.0474853515625
 30
0.0
 10
165.00749206542969
 20
187.18498229980469
 30
0.0
 10
165.32998657226562
 20
186.33499145507812
 30
0.0
 10
165.67498779296875
 20
185.4949951171875
 30
0.0
 10
166.03749084472656
 20
184.66249084472656
 30
0.0
 10
166.41998291015625
 20
183.84498596191406
 30
0.0
 10
166.82249450683594
 20
183.03498840332031
 30
0.0
 10
167.24249267578125
 20
182.23748779296875
 30
0.0
 10
167.6824951171875
 20
181.45248413085937
 30
0.0
 10
168.13998413085937
 20
180.677490234375
 30
0.0
 10
168.614990234375
 20
179.91499328613281
 30
0.0
 10
169.1099853515625
 20
179.16499328613281
 30
0.0
 10
169.6199951171875
 20
178.42999267578125
 30
0.0
 10
170.14749145507812
 20
177.70498657226562
 30
0.0
 10
170.69248962402344
 20
176.9949951171875
 30
0.0
 10
171.25248718261719
 20
176.2974853515625
 30
0.0
 10
171.82998657226562
 20
175.614990234375
 30
0.0
 10
172.42498779296875
 20
174.94499206542969
 30
0.0
 10
173.03248596191406
 20
174.29249572753906
 30
0.0
 10
173.65748596191406
 20
173.65248107910156
 30
0.0
 10
174.2974853515625
 20
173.02748107910156
 30
0.0
 10
174.94998168945312
 20
172.41749572753906
 30
0.0
 10
175.6199951171875
 20
171.82498168945312
 30
0.0
 10
176.302490234375
 20
171.24748229980469
 30
0.0
 10
176.99998474121094
 20
170.68748474121094
 30
0.0
 10
177.70999145507812
 20
170.14248657226562
 30
0.0
 10
178.4324951171875
 20
169.61248779296875
 30
0.0
 10
179.16998291015625
 20
169.10249328613281
 30
0.0
 10
179.91998291015625
 20
168.6099853515625
 30
0.0
 10
180.67999267578125
 20
168.13249206542969
 30
0.0
 10
181.45498657226562
 20
167.67498779296875
 30
0.0
 10
182.239990234375
 20
167.23748779296875
 30
0.0
 10
183.03749084472656
 20
166.81498718261719
 30
0.0
 10
183.84748840332031
 20
166.41249084472656
 30
0.0
 10
184.66499328613281
 20
166.02998352050781
 30
0.0
 10
185.49748229980469
 20
165.66749572753906
 30
0.0
 10
186.33749389648437
 20
165.32249450683594
 30
0.0
 10
187.18748474121094
 20
164.99998474121094
 30
0.0
 10
188.0474853515625
 20
164.69749450683594
 30
0.0
 10
188.91749572753906
 20
164.41249084472656
 30
0.0
 10
189.7974853515625
 20
164.15248107910156
 30
0.0
 10
190.68498229980469
 20
163.90998840332031
 30
0.0
 10
191.58248901367187
 20
163.69248962402344
 30
0.0
 10
192.48748779296875
 20
163.4949951171875
 30
0.0
 10
193.39999389648437
 20
163.31999206542969
 30
0.0
 10
194.32249450683594
 20
163.16749572753906
 30
0.0
 10
195.24998474121094
 20
163.03749084472656
 30
0.0
 10
196.18498229980469
 20
162.92999267578125
 30
0.0
 10
197.12748718261719
 20
162.84498596191406
 30
0.0
 10
198.07748413085937
 20
162.78498840332031
 30
0.0
 10
199.03248596191406
 20
162.74748229980469
 30
0.0
 10
199.99249267578125
 20
162.7349853515625
 30
0.0
 10
200.95999145507812
 20
162.75498962402344
 30
0.0
 10
201.91499328613281
 20
162.78999328613281
 30
0.0
 10
202.86248779296875
 20
162.84999084472656
 30
0.0
 10
203.80499267578125
 20
162.93498229980469
 30
0.0
 10
204.74249267578125
 20
163.04249572753906
 30
0.0
 10
205.66998291015625
 20
163.1724853515625
 30
0.0
 10
206.59248352050781
 20
163.32498168945312
 30
0.0
 10
207.50498962402344
 20
163.49998474121094
 30
0.0
 10
208.40998840332031
 20
163.69749450683594
 30
0.0
 10
209.3074951171875
 20
163.91499328613281
 30
0.0
 10
210.19499206542969
 20
164.15498352050781
 30
0.0
 10
211.07498168945312
 20
164.41749572753906
 30
0.0
 10
211.94499206542969
 20
164.69998168945313
 30
0.0
 10
212.80499267578125
 20
165.00248718261719
 30
0.0
 10
213.65748596191406
 20
165.32498168945312
 30
0.0
 10
214.49748229980469
 20
165.66998291015625
 30
0.0
 10
215.32748413085937
 20
166.03248596191406
 30
0.0
 10
216.14749145507812
 20
166.41499328613281
 30
0.0
 10
216.95498657226562
 20
166.81748962402344
 30
0.0
 10
217.75248718261719
 20
167.23748779296875
 30
0.0
 10
218.53999328613281
 20
167.677490234375
 30
0.0
 10
219.31248474121094
 20
168.13499450683594
 30
0.0
 10
220.07498168945313
 20
168.6099853515625
 30
0.0
 10
220.82498168945312
 20
169.10499572753906
 30
0.0
 10
221.55998229980469
 20
169.614990234375
 30
0.0
 10
222.28498840332031
 20
170.14248657226562
 30
0.0
 10
222.99497985839844
 20
170.68748474121094
 30
0.0
 10
223.69248962402344
 20
171.24748229980469
 30
0.0
 10
224.37498474121094
 20
171.82498168945312
 30
0.0
 10
225.04248046875
 20
172.41998291015625
 30
0.0
 10
225.69749450683594
 20
173.02748107910156
 30
0.0
 10
226.33749389648437
 20
173.65248107910156
 30
0.0
 10
226.95999145507812
 20
174.29249572753906
 30
0.0
 10
227.56999206542969
 20
174.94499206542969
 30
0.0
 10
228.16249084472656
 20
175.614990234375
 30
0.0
 10
228.739990234375
 20
176.2974853515625
 30
0.0
 10
229.302490234375
 20
176.9949951171875
 30
0.0
 10
229.84498596191406
 20
177.70498657226562
 30
0.0
 10
230.37498474121094
 20
178.427490234375
 30
0.0
 10
230.88499450683594
 20
179.16499328613281
 30
0.0
 10
231.37748718261719
 20
179.91499328613281
 30
0.0
 10
231.85249328613281
 20
180.67498779296875
 30
0.0
 10
232.30998229980469
 20
181.44998168945312
 30
0.0
 10
232.74998474121094
 20
182.2349853515625
 30
0.0
 10
233.16998291015625
 20
183.03248596191406
 30
0.0
 10
233.57249450683594
 20
183.84248352050781
 30
0.0
 10
233.95498657226562
 20
184.65998840332031
 30
0.0
 10
234.31748962402344
 20
185.49249267578125
 30
0.0
 10
234.65998840332031
 20
186.33248901367187
 30
0.0
 10
234.98248291015625
 20
187.1824951171875
 30
0.0
 10
235.28498840332031
 20
188.04249572753906
 30
0.0
 10
235.56748962402344
 20
188.91249084472656
 30
0.0
 10
235.82998657226562
 20
189.79249572753906
 30
0.0
 10
236.06999206542969
 20
190.67999267578125
 30
0.0
 10
236.28749084472656
 20
191.57748413085937
 30
0.0
 10
236.4849853515625
 20
192.48248291015625
 30
0.0
 10
236.65998840332031
 20
193.39498901367188
 30
0.0
 10
236.81248474121094
 20
194.31748962402344
 30
0.0
 10
236.93998718261719
 20
195.2449951171875
 30
0.0
 10
237.0474853515625
 20
196.17999267578125
 30
0.0
 10
237.12998962402344
 20
197.12248229980469
 30
0.0
 10
237.18998718261719
 20
198.07249450683594
 30
0.0
 10
237.22499084472656
 20
199.02748107910156
 30
0.0
 10
237.23748779296875
 20
199.98748779296875
 30
0.0
 10
237.23748779296875
 20
200.95748901367188
 30
0.0
 10
237.20248413085937
 20
201.91249084472656
 30
0.0
 10
237.14248657226562
 20
202.8599853515625
 30
0.0
 10
237.05747985839844
 20
203.802490234375
 30
0.0
 10
236.94998168945312
 20
204.739990234375
 30
0.0
 10
236.81999206542969
 20
205.66748046875
 30
0.0
 10
236.66748046875
 20
206.58998107910156
 30
0.0
 10
236.49249267578125
 20
207.50248718261719
 30
0.0
 10
236.29498291015625
 20
208.40748596191406
 30
0.0
 10
236.07748413085937
 20
209.30499267578125
 30
0.0
 10
235.83749389648437
 20
210.19248962402344
 30
0.0
 10
235.57498168945313
 20
211.07249450683594
 30
0.0
 10
235.29248046875
 20
211.94248962402344
 30
0.0
 10
234.989990234375
 20
212.802490234375
 30
0.0
 10
234.66499328613281
 20
213.65248107910156
 30
0.0
 10
234.32249450683594
 20
214.4949951171875
 30
0.0
 10
233.95999145507812
 20
215.32498168945312
 30
0.0
 10
233.57498168945312
 20
216.14498901367188
 30
0.0
 10
233.17498779296875
 20
216.95248413085937
 30
0.0
 10
232.75248718261719
 20
217.74998474121094
 30
0.0
 10
232.31498718261719
 20
218.53498840332031
 30
0.0
 10
231.85748291015625
 20
219.30998229980469
 30
0.0
 10
231.37998962402344
 20
220.07249450683594
 30
0.0
 10
230.88748168945312
 20
220.82249450683594
 30
0.0
 10
230.37748718261719
 20
221.55747985839844
 30
0.0
 10
229.84999084472656
 20
222.28248596191406
 30
0.0
 10
229.30499267578125
 20
222.99249267578125
 30
0.0
 10
228.74249267578125
 20
223.68998718261719
 30
0.0
 10
228.16499328613281
 20
224.37248229980469
 30
0.0
 10
227.57249450683594
 20
225.03999328613281
 30
0.0
 10
226.96249389648437
 20
225.69499206542969
 30
0.0
 10
226.33749389648437
 20
226.33499145507812
 30
0.0
 10
225.69998168945313
 20
226.95748901367187
 30
0.0
 10
225.04498291015625
 20
227.56748962402344
 30
0.0
 10
224.37498474121094
 20
228.15998840332031
 30
0.0
 10
223.69248962402344
 20
228.73748779296875
 30
0.0
 10
222.99497985839844
 20
229.29998779296875
 30
0.0
 10
222.28498840332031
 20
229.84498596191406
 30
0.0
 10
221.56248474121094
 20
230.37248229980469
 30
0.0
 10
220.82498168945312
 20
230.88249206542969
 30
0.0
 10
220.07498168945313
 20
231.37498474121094
 30
0.0
 10
219.31248474121094
 20
231.84999084472656
 30
0.0
 10
218.53999328613281
 20
232.30747985839844
 30
0.0
 10
217.75248718261719
 20
232.74748229980469
 30
0.0
 10
216.95498657226562
 20
233.16748046875
 30
0.0
 10
216.14749145507812
 20
233.56999206542969
 30
0.0
 10
215.32748413085937
 20
233.95248413085937
 30
0.0
 10
214.49748229980469
 20
234.31498718261719
 30
0.0
 10
213.65498352050781
 20
234.65998840332031
 30
0.0
 10
212.80499267578125
 20
234.98248291015625
 30
0.0
 10
211.94499206542969
 20
235.28498840332031
 30
0.0
 10
211.07498168945312
 20
235.56748962402344
 30
0.0
 10
210.19499206542969
 20
235.82998657226562
 30
0.0
 10
209.3074951171875
 20
236.06999206542969
 30
0.0
 10
208.40998840332031
 20
236.28749084472656
 30
0.0
 10
207.50498962402344
 20
236.4849853515625
 30
0.0
 10
206.58998107910156
 20
236.65998840332031
 30
0.0
 10
205.66998291015625
 20
236.81248474121094
 30
0.0
 10
204.739990234375
 20
236.94248962402344
 30
0.0
 10
203.80499267578125
 20
237.04998779296875
 30
0.0
 10
202.86248779296875
 20
237.13249206542969
 30
0.0
 10
201.91249084472656
 20
237.19248962402344
 30
0.0
 10
200.95748901367188
 20
237.22998046875
 30
0.0
 10
199.99748229980469
 20
237.239990234375
 30
0.0
 10
199.03498840332031
 20
237.23248291015625
 30
0.0
 10
198.07998657226562
 20
237.19749450683594
 30
0.0
 10
197.13249206542969
 20
237.13748168945312
 30
0.0
 10
196.18998718261719
 20
237.052490234375
 30
0.0
 10
195.25248718261719
 20
236.94499206542969
 30
0.0
 10
194.32498168945313
 20
236.81498718261719
 30
0.0
 10
193.40248107910156
 20
236.66249084472656
 30
0.0
 10
192.489990234375
 20
236.48748779296875
 30
0.0
 10
191.58499145507812
 20
236.28999328613281
 30
0.0
 10
190.68748474121094
 20
236.07249450683594
 30
0.0
 10
189.79998779296875
 20
235.83248901367187
 30
0.0
 10
188.91998291015625
 20
235.56999206542969
 30
0.0
 10
188.04998779296875
 20
235.28749084472656
 30
0.0
 10
187.18998718261719
 20
234.9849853515625
 30
0.0
 10
186.33998107910156
 20
234.65998840332031
 30
0.0
 10
185.49748229980469
 20
234.31748962402344
 30
0.0
 10
184.66749572753906
 20
233.95498657226562
 30
0.0
 10
183.84748840332031
 20
233.57249450683594
 30
0.0
 10
183.03999328613281
 20
233.16998291015625
 30
0.0
 10
182.24249267578125
 20
232.74998474121094
 30
0.0
 10
181.45498657226562
 20
232.30998229980469
 30
0.0
 10
180.6824951171875
 20
231.85249328613281
 30
0.0
 10
179.91998291015625
 20
231.37498474121094
 30
0.0
 10
179.16998291015625
 20
230.88249206542969
 30
0.0
 10
178.4324951171875
 20
230.37248229980469
 30
0.0
 10
177.70999145507812
 20
229.84498596191406
 30
0.0
 10
176.99998474121094
 20
229.29998779296875
 30
0.0
 10
176.302490234375
 20
228.73748779296875
 30
0.0
 10
175.6199951171875
 20
228.15998840332031
 30
0.0
 10
174.94998168945312
 20
227.56748962402344
 30
0.0
 10
174.2974853515625
 20
226.95748901367187
 30
0.0
 10
173.65748596191406
 20
226.33248901367187
 30
0.0
 10
173.03248596191406
 20
225.69499206542969
 30
0.0
 10
172.4224853515625
 20
225.03999328613281
 30
0.0
 10
171.82998657226562
 20
224.36997985839844
 30
0.0
 10
171.25248718261719
 20
223.68748474121094
 30
0.0
 10
170.68998718261719
 20
222.989990234375
 30
0.0
 10
170.14498901367187
 20
222.27998352050781
 30
0.0
 10
169.61749267578125
 20
221.55747985839844
 30
0.0
 10
169.10748291015625
 20
220.81999206542969
 30
0.0
 10
168.61248779296875
 20
220.06999206542969
 30
0.0
 10
168.13748168945313
 20
219.30747985839844
 30
0.0
 10
167.67999267578125
 20
218.53248596191406
 30
0.0
 10
167.239990234375
 20
217.74748229980469
 30
0.0
 10
166.81999206542969
 20
216.94998168945312
 30
0.0
 10
166.41749572753906
 20
216.13998413085937
 30
0.0
 10
166.03498840332031
 20
215.31999206542969
 30
0.0
 10
165.66998291015625
 20
214.489990234375
 30
0.0
 10
165.32748413085937
 20
213.64999389648437
 30
0.0
 10
165.00248718261719
 20
212.7974853515625
 30
0.0
 10
164.69998168945313
 20
211.93748474121094
 30
0.0
 10
164.41749572753906
 20
211.06748962402344
 30
0.0
 10
164.15498352050781
 20
210.18748474121094
 30
0.0
 10
163.91499328613281
 20
209.29998779296875
 30
0.0
 10
163.69499206542969
 20
208.40248107910156
 30
0.0
 10
163.49748229980469
 20
207.4949951171875
 30
0.0
 10
163.32249450683594
 20
206.58248901367187
 30
0.0
 10
163.16998291015625
 20
205.65998840332031
 30
0.0
 10
163.03999328613281
 20
204.73248291015625
 30
0.0
 10
162.9324951171875
 20
203.79498291015625
 30
0.0
 10
162.84748840332031
 20
202.85249328613281
 30
0.0
 10
162.78749084472656
 20
201.90248107910156
 30
0.0
 10
162.74998474121094
 20
200.94749450683594
 30
0.0
 10
162.73748779296875
 20
199.9849853515625
 30
0.0
 10
162.74748229980469
 20
199.9949951171875
 30
0.0
  0
LWPOLYLINE
  5
4F
100
AcDbEntity
  8
0
 62
-1
420
0
370
1
 48
1.0
  6
CONTINUOUS
100
AcDbPolyline
 90
258
 70
0
 10
160.99249267578125
 20
199.9949951171875
 30
0.0
 10
161.00498962402344
 20
198.98748779296875
 30
0.0
 10
161.04249572753906
 20
197.98748779296875
 30
0.0
 10
161.10499572753906
 20
196.9949951171875
 30
0.0
 10
161.19499206542969
 20
196.00749206542969
 30
0.0
 10
161.30499267578125
 20
195.02748107910156
 30
0.0
 10
161.44248962402344
 20
194.05499267578125
 30
0.0
 10
161.60249328613281
 20
193.08998107910156
 30
0.0
 10
161.78498840332031
 20
192.13499450683594
 30
0.0
 10
161.989990234375
 20
191.18748474121094
 30
0.0
 10
162.21998596191406
 20
190.24748229980469
 30
0.0
 10
162.47248840332031
 20
189.31748962402344
 30
0.0
 10
162.7449951171875
 20
188.39749145507812
 30
0.0
 10
163.04249572753906
 20
187.4849853515625
 30
0.0
 10
163.3599853515625
 20
186.58499145507812
 30
0.0
 10
163.69749450683594
 20
185.69499206542969
 30
0.0
 10
164.0574951171875
 20
184.81248474121094
 30
0.0
 10
164.43748474121094
 20
183.94499206542969
 30
0.0
 10
164.83749389648437
 20
183.08499145507812
 30
0.0
 10
165.25749206542969
 20
182.239990234375
 30
0.0
 10
165.69998168945312
 20
181.40498352050781
 30
0.0
 10
166.15998840332031
 20
180.57998657226562
 30
0.0
 10
166.63748168945313
 20
179.76998901367187
 30
0.0
 10
167.13499450683594
 20
178.97248840332031
 30
0.0
 10
167.65248107910156
 20
178.18748474121094
 30
0.0
 10
168.18748474121094
 20
177.41749572753906
 30
0.0
 10
168.739990234375
 20
176.65748596191406
 30
0.0
 10
169.30998229980469
 20
175.91499328613281
 30
0.0
 10
169.89749145507812
 20
175.18498229980469
 30
0.0
 10
170.50248718261719
 20
174.46998596191406
 30
0.0
 10
171.12248229980469
 20
173.76998901367187
 30
0.0
 10
171.75999450683594
 20
173.08499145507812
 30
0.0
 10
172.41499328613281
 20
172.41499328613281
 30
0.0
 10
173.08248901367187
 20
171.75999450683594
 30
0.0
 10
173.76748657226562
 20
171.12248229980469
 30
0.0
 10
174.46748352050781
 20
170.50248718261719
 30
0.0
 10
175.1824951171875
 20
169.89749145507812
 30
0.0
 10
175.91249084472656
 20
169.30998229980469
 30
0.0
 10
176.65748596191406
 20
168.73748779296875
 30
0.0
 10
177.41499328613281
 20
168.18498229980469
 30
0.0
 10
178.18498229980469
 20
167.64999389648437
 30
0.0
 10
178.96998596191406
 20
167.13499450683594
 30
0.0
 10
179.76748657226562
 20
166.63499450683594
 30
0.0
 10
180.57748413085937
 20
166.15748596191406
 30
0.0
 10
181.39999389648437
 20
165.69499206542969
 30
0.0
 10
182.2349853515625
 20
165.25498962402344
 30
0.0
 10
183.08248901367187
 20
164.83499145507812
 30
0.0
 10
183.93998718261719
 20
164.4324951171875
 30
0.0
 10
184.8074951171875
 20
164.052490234375
 30
0.0
 10
185.68998718261719
 20
163.69248962402344
 30
0.0
 10
186.57998657226562
 20
163.35249328613281
 30
0.0
 10
187.47999572753906
 20
163.03498840332031
 30
0.0
 10
188.38998413085937
 20
162.739990234375
 30
0.0
 10
189.31248474121094
 20
162.46499633789063
 30
0.0
 10
190.24249267578125
 20
162.21249389648437
 30
0.0
 10
191.17999267578125
 20
161.9849853515625
 30
0.0
 10
192.12748718261719
 20
161.77749633789063
 30
0.0
 10
193.08499145507812
 20
161.59248352050781
 30
0.0
 10
194.0474853515625
 20
161.4324951171875
 30
0.0
 10
195.01998901367187
 20
161.2974853515625
 30
0.0
 10
195.99998474121094
 20
161.18498229980469
 30
0.0
 10
196.9849853515625
 20
161.09498596191406
 30
0.0
 10
197.97998046875
 20
161.03248596191406
 30
0.0
 10
198.97998046875
 20
160.9949951171875
 30
0.0
 10
199.9849853515625
 20
160.97999572753906
 30
0.0
 10
201.00248718261719
 20
161.00498962402344
 30
0.0
 10
202.00248718261719
 20
161.04249572753906
 30
0.0
 10
202.9949951171875
 20
161.10499572753906
 30
0.0
 10
203.98248291015625
 20
161.19499206542969
 30
0.0
 10
204.96249389648437
 20
161.30499267578125
 30
0.0
 10
205.93498229980469
 20
161.44248962402344
 30
0.0
 10
206.89999389648437
 20
161.60249328613281
 30
0.0
 10
207.85498046875
 20
161.78498840332031
 30
0.0
 10
208.802490234375
 20
161.989990234375
 30
0.0
 10
209.74249267578125
 20
162.21998596191406
 30
0.0
 10
210.6724853515625
 20
162.47248840332031
 30
0.0
 10
211.59248352050781
 20
162.7449951171875
 30
0.0
 10
212.50498962402344
 20
163.04249572753906
 30
0.0
 10
213.40498352050781
 20
163.3599853515625
 30
0.0
 10
214.29498291015625
 20
163.69749450683594
 30
0.0
 10
215.177490234375
 20
164.0574951171875
 30
0.0
 10
216.04498291015625
 20
164.43748474121094
 30
0.0
 10
216.90498352050781
 20
164.83749389648437
 30
0.0
 10
217.74998474121094
 20
165.25999450683594
 30
0.0
 10
218.58499145507812
 20
165.69998168945312
 30
0.0
 10
219.40748596191406
 20
166.15998840332031
 30
0.0
 10
220.21998596191406
 20
166.63998413085937
 30
0.0
 10
221.01748657226562
 20
167.13748168945312
 30
0.0
 10
221.802490234375
 20
167.65248107910156
 30
0.0
 10
222.57249450683594
 20
168.18748474121094
 30
0.0
 10
223.32998657226562
 20
168.739990234375
 30
0.0
 10
224.07498168945312
 20
169.30998229980469
 30
0.0
 10
224.80499267578125
 20
169.89749145507812
 30
0.0
 10
225.51998901367187
 20
170.50248718261719
 30
0.0
 10
226.21998596191406
 20
171.12498474121094
 30
0.0
 10
226.90498352050781
 20
171.76248168945312
 30
0.0
 10
227.57249450683594
 20
172.41499328613281
 30
0.0
 10
228.22749328613281
 20
173.08499145507812
 30
0.0
 10
228.864990234375
 20
173.76998901367187
 30
0.0
 10
229.4849853515625
 20
174.46998596191406
 30
0.0
 10
230.08998107910156
 20
175.18498229980469
 30
0.0
 10
230.677490234375
 20
175.91499328613281
 30
0.0
 10
231.24748229980469
 20
176.65998840332031
 30
0.0
 10
231.79998779296875
 20
177.41749572753906
 30
0.0
 10
232.33499145507812
 20
178.18748474121094
 30
0.0
 10
232.85249328613281
 20
178.97248840332031
 30
0.0
 10
233.34999084472656
 20
179.76998901367187
 30
0.0
 10
233.82998657226562
 20
180.57998657226562
 30
0.0
 10
234.28999328613281
 20
181.40248107910156
 30
0.0
 10
234.72998046875
 20
182.23748779296875
 30
0.0
 10
235.14999389648437
 20
183.08499145507812
 30
0.0
 10
235.552490234375
 20
183.94248962402344
 30
0.0
 10
235.93247985839844
 20
184.81248474121094
 30
0.0
 10
236.28999328613281
 20
185.69248962402344
 30
0.0
 10
236.62998962402344
 20
186.58499145507812
 30
0.0
 10
236.94749450683594
 20
187.4849853515625
 30
0.0
 10
237.24249267578125
 20
188.39498901367187
 30
0.0
 10
237.51748657226562
 20
189.31748962402344
 30
0.0
 10
237.76748657226562
 20
190.24748229980469
 30
0.0
 10
237.99748229980469
 20
191.18498229980469
 30
0.0
 10
238.20498657226562
 20
192.13249206542969
 30
0.0
 10
238.38748168945312
 20
193.08998107910156
 30
0.0
 10
238.5474853515625
 20
194.05499267578125
 30
0.0
 10
238.68247985839844
 20
195.02499389648437
 30
0.0
 10
238.79498291015625
 20
196.00498962402344
 30
0.0
 10
238.88249206542969
 20
196.99249267578125
 30
0.0
 10
238.94499206542969
 20
197.98748779296875
 30
0.0
 10
238.98248291015625
 20
198.98748779296875
 30
0.0
 10
238.99497985839844
 20
199.99249267578125
 30
0.0
 10
238.9849853515625
 20
201.00248718261719
 30
0.0
 10
238.94749450683594
 20
202.00248718261719
 30
0.0
 10
238.88499450683594
 20
202.9949951171875
 30
0.0
 10
238.79498291015625
 20
203.98248291015625
 30
0.0
 10
238.68498229980469
 20
204.96249389648437
 30
0.0
 10
238.5474853515625
 20
205.93498229980469
 30
0.0
 10
238.38748168945312
 20
206.89999389648437
 30
0.0
 10
238.20498657226562
 20
207.85498046875
 30
0.0
 10
237.99748229980469
 20
208.802490234375
 30
0.0
 10
237.76998901367187
 20
209.74249267578125
 30
0.0
 10
237.51748657226562
 20
210.6724853515625
 30
0.0
 10
237.24497985839844
 20
211.59248352050781
 30
0.0
 10
236.94749450683594
 20
212.50498962402344
 30
0.0
 10
236.62998962402344
 20
213.40498352050781
 30
0.0
 10
236.29248046875
 20
214.29498291015625
 30
0.0
 10
235.93247985839844
 20
215.177490234375
 30
0.0
 10
235.552490234375
 20
216.04498291015625
 30
0.0
 10
235.14999389648437
 20
216.90498352050781
 30
0.0
 10
234.72998046875
 20
217.74998474121094
 30
0.0
 10
234.28999328613281
 20
218.58499145507812
 30
0.0
 10
233.82998657226562
 20
219.40748596191406
 30
0.0
 10
233.34999084472656
 20
220.21998596191406
 30
0.0
 10
232.85249328613281
 20
221.01748657226562
 30
0.0
 10
232.33499145507812
 20
221.802490234375
 30
0.0
 10
231.79998779296875
 20
222.57249450683594
 30
0.0
 10
231.24748229980469
 20
223.32998657226562
 30
0.0
 10
230.677490234375
 20
224.07498168945312
 30
0.0
 10
230.08998107910156
 20
224.80499267578125
 30
0.0
 10
229.4849853515625
 20
225.51998901367187
 30
0.0
 10
228.864990234375
 20
226.21998596191406
 30
0.0
 10
228.22499084472656
 20
226.90498352050781
 30
0.0
 10
227.57249450683594
 20
227.57249450683594
 30
0.0
 10
226.90248107910156
 20
228.22749328613281
 30
0.0
 10
226.21748352050781
 20
228.864990234375
 30
0.0
 10
225.51748657226562
 20
229.4849853515625
 30
0.0
 10
224.802490234375
 20
230.08998107910156
 30
0.0
 10
224.07249450683594
 20
230.677490234375
 30
0.0
 10
223.32748413085937
 20
231.24748229980469
 30
0.0
 10
222.56999206542969
 20
231.79998779296875
 30
0.0
 10
221.7974853515625
 20
232.33499145507812
 30
0.0
 10
221.01248168945312
 20
232.85249328613281
 30
0.0
 10
220.21498107910156
 20
233.34999084472656
 30
0.0
 10
219.40498352050781
 20
233.82998657226562
 30
0.0
 10
218.58248901367187
 20
234.28999328613281
 30
0.0
 10
217.74748229980469
 20
234.72998046875
 30
0.0
 10
216.89999389648437
 20
235.14999389648437
 30
0.0
 10
216.03999328613281
 20
235.552490234375
 30
0.0
 10
215.1724853515625
 20
235.93247985839844
 30
0.0
 10
214.28999328613281
 20
236.28999328613281
 30
0.0
 10
213.39999389648437
 20
236.62998962402344
 30
0.0
 10
212.49748229980469
 20
236.94749450683594
 30
0.0
 10
211.58749389648437
 20
237.24249267578125
 30
0.0
 10
210.66499328613281
 20
237.51748657226562
 30
0.0
 10
209.7349853515625
 20
237.76748657226562
 30
0.0
 10
208.79498291015625
 20
237.99748229980469
 30
0.0
 10
207.84748840332031
 20
238.20498657226562
 30
0.0
 10
206.88998413085937
 20
238.38748168945312
 30
0.0
 10
205.92498779296875
 20
238.5474853515625
 30
0.0
 10
204.95248413085937
 20
238.68247985839844
 30
0.0
 10
203.97248840332031
 20
238.79498291015625
 30
0.0
 10
202.9849853515625
 20
238.88249206542969
 30
0.0
 10
201.99249267578125
 20
238.94499206542969
 30
0.0
 10
200.989990234375
 20
238.98248291015625
 30
0.0
 10
199.98248291015625
 20
238.99497985839844
 30
0.0
 10
198.98748779296875
 20
238.9849853515625
 30
0.0
 10
197.98748779296875
 20
238.94749450683594
 30
0.0
 10
196.9949951171875
 20
238.88499450683594
 30
0.0
 10
196.00749206542969
 20
238.79498291015625
 30
0.0
 10
195.02748107910156
 20
238.68498229980469
 30
0.0
 10
194.05499267578125
 20
238.5474853515625
 30
0.0
 10
193.08998107910156
 20
238.38748168945312
 30
0.0
 10
192.13499450683594
 20
238.20498657226562
 30
0.0
 10
191.18498229980469
 20
237.99748229980469
 30
0.0
 10
190.24748229980469
 20
237.76998901367187
 30
0.0
 10
189.31748962402344
 20
237.51748657226562
 30
0.0
 10
188.39498901367187
 20
237.24497985839844
 30
0.0
 10
187.4849853515625
 20
236.94749450683594
 30
0.0
 10
186.58499145507812
 20
236.62998962402344
 30
0.0
 10
185.69248962402344
 20
236.29248046875
 30
0.0
 10
184.81248474121094
 20
235.93247985839844
 30
0.0
 10
183.94248962402344
 20
235.552490234375
 30
0.0
 10
183.08499145507812
 20
235.14999389648437
 30
0.0
 10
182.23748779296875
 20
234.72998046875
 30
0.0
 10
181.40248107910156
 20
234.28999328613281
 30
0.0
 10
180.57998657226562
 20
233.82998657226562
 30
0.0
 10
179.76998901367187
 20
233.34999084472656
 30
0.0
 10
178.97248840332031
 20
232.85249328613281
 30
0.0
 10
178.18748474121094
 20
232.33499145507812
 30
0.0
 10
177.41499328613281
 20
231.79998779296875
 30
0.0
 10
176.65748596191406
 20
231.24748229980469
 30
0.0
 10
175.91499328613281
 20
230.677490234375
 30
0.0
 10
175.18498229980469
 20
230.08998107910156
 30
0.0
 10
174.46998596191406
 20
229.4849853515625
 30
0.0
 10
173.76998901367187
 20
228.864990234375
 30
0.0
 10
173.08499145507812
 20
228.22499084472656
 30
0.0
 10
172.41499328613281
 20
227.57249450683594
 30
0.0
 10
171.75999450683594
 20
226.90248107910156
 30
0.0
 10
171.12248229980469
 20
226.21748352050781
 30
0.0
 10
170.50248718261719
 20
225.51748657226562
 30
0.0
 10
169.89749145507812
 20
224.802490234375
 30
0.0
 10
169.30998229980469
 20
224.07249450683594
 30
0.0
 10
168.739990234375
 20
223.32748413085937
 30
0.0
 10
168.18748474121094
 20
222.56999206542969
 30
0.0
 10
167.65248107910156
 20
221.7974853515625
 30
0.0
 10
167.13499450683594
 20
221.01248168945312
 30
0.0
 10
166.63748168945313
 20
220.21498107910156
 30
0.0
 10
166.15748596191406
 20
219.40498352050781
 30
0.0
 10
165.69749450683594
 20
218.58248901367187
 30
0.0
 10
165.25749206542969
 20
217.74748229980469
 30
0.0
 10
164.83749389648437
 20
216.89999389648437
 30
0.0
 10
164.43498229980469
 20
216.03999328613281
 30
0.0
 10
164.05499267578125
 20
215.1724853515625
 30
0.0
 10
163.69499206542969
 20
214.28999328613281
 30
0.0
 10
163.35748291015625
 20
213.39999389648437
 30
0.0
 10
163.03999328613281
 20
212.49748229980469
 30
0.0
 10
162.74249267578125
 20
211.58749389648437
 30
0.0
 10
162.46998596191406
 20
210.66499328613281
 30
0.0
 10
162.21748352050781
 20
209.7349853515625
 30
0.0
 10
161.98748779296875
 20
208.79498291015625
 30
0.0
 10
161.78248596191406
 20
207.84748840332031
 30
0.0
 10
161.59748840332031
 20
206.88998413085937
 30
0.0
 10
161.43998718261719
 20
205.92498779296875
 30
0.0
 10
161.302490234375
 20
204.95248413085937
 30
0.0
 10
161.18998718261719
 20
203.97248840332031
 30
0.0
 10
161.10249328613281
 20
202.9849853515625
 30
0.0
 10
161.03999328613281
 20
201.99249267578125
 30
0.0
 10
161.00248718261719
 20
200.989990234375
 30
0.0
 10
160.98748779296875
 20
199.98248291015625
 30
0.0
 10
160.99249267578125
 20
199.9949951171875
 30
0.0
  0
LWPOLYLINE
  5
50
100
AcDbEntity
  8
0
 62
-1
420
0
370
1
 48
1.0
  6
CONTINUOUS
100
AcDbPolyline
 90
2
 70
0
 10
199.99822998046875
 20
238.99586486816406
 30
0.0
 10
200.00067138671875
 20
237.24334716796875
 30
0.0
  0
LWPOLYLINE
  5
51
100
AcDbEntity
  8
0
 62
-1
420
0
370
1
 48
1.0
  6
CONTINUOUS
100
AcDbPolyline
 90
2
 70
0
 10
204.07554626464844
 20
238.7823486328125
 30
0.0
 10
203.894775390625
 20
237.03916931152344
 30
0.0
  0
LWPOLYLINE
  5
52
100
AcDbEntity
  8
0
 62
-1
420
0
370
1
 48
1.0
  6
CONTINUOUS
100
AcDbPolyline
 90
2
 70
0
 10
208.10821533203125
 20
238.14382934570312
 30
0.0
 10
207.74623107910156
 20
236.42910766601562
 30
0.0
  0
LWPOLYLINE
  5
53
100
AcDbEntity
  8
0
 62
-1
420
0
370
1
 48
1.0
  6
CONTINUOUS
100
AcDbPolyline
 90
2
 70
0
 10
212.05203247070312
 20
237.08729553222656
 30
0.0
 10
211.51280212402344
 20
235.4197998046875
 30
0.0
  0
LWPOLYLINE
  5
54
100
AcDbEntity
  8
0
 62
-1
420
0
370
1
 48
1.0
  6
CONTINUOUS
100
AcDbPolyline
 90
2
 70
0
 10
215.86381530761719
 20
235.624267578125
 30
0.0
 10
215.15324401855469
 20
234.02227783203125
 30
0.0
  0
LWPOLYLINE
  5
55
100
AcDbEntity
  8
0
 62
-1
420
0
370
1
 48
1.0
  6
CONTINUOUS
100
AcDbPolyline
 90
2
 70
0
 10
219.50180053710937
 20
233.77084350585937
 30
0.0
 10
218.62765502929687
 20
232.25189208984375
 30
0.0
  0
LWPOLYLINE
  5
56
100
AcDbEntity
  8
0
 62
-1
420
0
370
1
 48
1.0
  6
CONTINUOUS
100
AcDbPolyline
 90
2
 70
0
 10
222.92611694335937
 20
231.54728698730469
 30
0.0
 10
221.89797973632812
 20
230.12803649902344
 30
0.0
  0
LWPOLYLINE
  5
57
100
AcDbEntity
  8
0
 62
-1
420
0
370
1
 48
1.0
  6
CONTINUOUS
100
AcDbPolyline
 90
2
 70
0
 10
226.0992431640625
 20
228.97795104980469
 30
0.0
 10
224.92839050292969
 20
227.6739501953125
 30
0.0
  0
LWPOLYLINE
  5
58
100
AcDbEntity
  8
0
 62
-1
420
0
370
1
 48
1.0
  6
CONTINUOUS
100
AcDbPolyline
 90
2
 70
0
 10
228.98641967773437
 20
226.09104919433594
 30
0.0
 10
227.6856689453125
 20
224.91658020019531
 30
0.0
  0
LWPOLYLINE
  5
59
100
AcDbEntity
  8
0
 62
-1
420
0
370
1
 48
1.0
  6
CONTINUOUS
100
AcDbPolyline
 90
2
 70
0
 10
231.5560302734375
 20
222.91815185546875
 30
0.0
 10
230.1396484375
 20
221.88607788085937
 30
0.0
  0
LWPOLYLINE
  5
5A
100
AcDbEntity
  8
0
 62
-1
420
0
370
1
 48
1.0
  6
CONTINUOUS
100
AcDbPolyline
 90
2
 70
0
 10
233.77989196777344
 20
219.49406433105469
 30
0.0
 10
232.26338195800781
 20
218.61569213867187
 30
0.0
  0
LWPOLYLINE
  5
5B
100
AcDbEntity
  8
0
 62
-1
420
0
370
1
 48
1.0
  6
CONTINUOUS
100
AcDbPolyline
 90
2
 70
0
 10
235.63365173339844
 20
215.85624694824219
 30
0.0
 10
234.03364562988281
 20
215.14120483398437
 30
0.0
  0
LWPOLYLINE
  5
5C
100
AcDbEntity
  8
0
 62
-1
420
0
370
1
 48
1.0
  6
CONTINUOUS
100
AcDbPolyline
 90
2
 70
0
 10
237.09700012207031
 20
212.04458618164062
 30
0.0
 10
235.43101501464844
 20
211.50071716308594
 30
0.0
  0
LWPOLYLINE
  5
5D
100
AcDbEntity
  8
0
 62
-1
420
0
370
1
 48
1.0
  6
CONTINUOUS
100
AcDbPolyline
 90
2
 70
0
 10
238.15391540527344
 20
208.10084533691406
 30
0.0
 10
236.44020080566406
 20
207.73408508300781
 30
0.0
  0
LWPOLYLINE
  5
5E
100
AcDbEntity
  8
0
 62
-1
420
0
370
1
 48
1.0
  6
CONTINUOUS
100
AcDbPolyline
 90
2
 70
0
 10
238.79281616210937
 20
204.06825256347656
 30
0.0
 10
237.05015563964844
 20
203.88262939453125
 30
0.0
  0
LWPOLYLINE
  5
5F
100
AcDbEntity
  8
0
 62
-1
420
0
370
1
 48
1.0
  6
CONTINUOUS
100
AcDbPolyline
 90
2
 70
0
 10
239.00668334960937
 20
199.99093627929687
 30
0.0
 10
237.25416564941406
 20
199.98849487304688
 30
0.0
  0
LWPOLYLINE
  5
60
100
AcDbEntity
  8
0
 62
-1
420
0
370
1
 48
1.0
  6
CONTINUOUS
100
AcDbPolyline
 90
2
 70
0
 10
238.79316711425781
 20
195.91361999511719
 30
0.0
 10
237.05000305175781
 20
196.09437561035156
 30
0.0
  0
LWPOLYLINE
  5
61
100
AcDbEntity
  8
0
 62
-1
420
0
370
1
 48
1.0
  6
CONTINUOUS
100
AcDbPolyline
 90
2
 70
0
 10
238.15464782714844
 20
191.88096618652344
 30
0.0
 10
236.43992614746094
 20
192.24295043945313
 30
0.0
  0
LWPOLYLINE
  5
62
100
AcDbEntity
  8
0
 62
-1
420
0
370
1
 48
1.0
  6
CONTINUOUS
100
AcDbPolyline
 90
2
 70
0
 10
237.09811401367187
 20
187.93710327148437
 30
0.0
 10
235.43060302734375
 20
188.47633361816406
 30
0.0
  0
LWPOLYLINE
  5
63
100
AcDbEntity
  8
0
 62
-1
420
0
370
1
 48
1.0
  6
CONTINUOUS
100
AcDbPolyline
 90
2
 70
0
 10
235.63508605957031
 20
184.12533569335938
 30
0.0
 10
234.03309631347656
 20
184.83590698242187
 30
0.0
  0
LWPOLYLINE
  5
64
100
AcDbEntity
  8
0
 62
-1
420
0
370
1
 48
1.0
  6
CONTINUOUS
100
AcDbPolyline
 90
2
 70
0
 10
233.78166198730469
 20
180.48735046386719
 30
0.0
 10
232.26271057128906
 20
181.36149597167969
 30
0.0
  0
LWPOLYLINE
  5
65
100
AcDbEntity
  8
0
 62
-1
420
0
370
1
 48
1.0
  6
CONTINUOUS
100
AcDbPolyline
 90
2
 70
0
 10
231.55810546875
 20
177.06301879882813
 30
0.0
 10
230.13885498046875
 20
178.09114074707031
 30
0.0
  0
LWPOLYLINE
  5
66
100
AcDbEntity
  8
0
 62
-1
420
0
370
1
 48
1.0
  6
CONTINUOUS
100
AcDbPolyline
 90
2
 70
0
 10
228.98880004882812
 20
173.88990783691406
 30
0.0
 10
227.68478393554687
 20
175.06074523925781
 30
0.0
  0
LWPOLYLINE
  5
67
100
AcDbEntity
  8
0
 62
-1
420
0
370
1
 48
1.0
  6
CONTINUOUS
100
AcDbPolyline
 90
2
 70
0
 10
226.10188293457031
 20
171.00274658203125
 30
0.0
 10
224.92739868164062
 20
172.30348205566406
 30
0.0
  0
LWPOLYLINE
  5
68
100
AcDbEntity
  8
0
 62
-1
420
0
370
1
 48
1.0
  6
CONTINUOUS
100
AcDbPolyline
 90
2
 70
0
 10
222.92897033691406
 20
168.43312072753906
 30
0.0
 10
221.89689636230469
 20
169.84950256347656
 30
0.0
  0
LWPOLYLINE
  5
69
100
AcDbEntity
  8
0
 62
-1
420
0
370
1
 48
1.0
  6
CONTINUOUS
100
AcDbPolyline
 90
2
 70
0
 10
219.50483703613281
 20
166.20927429199219
 30
0.0
 10
218.62646484375
 20
167.72576904296875
 30
0.0
  0
LWPOLYLINE
  5
6A
100
AcDbEntity
  8
0
 62
-1
420
0
370
1
 48
1.0
  6
CONTINUOUS
100
AcDbPolyline
 90
2
 70
0
 10
215.86705017089844
 20
164.35546875
 30
0.0
 10
215.15200805664062
 20
165.95549011230469
 30
0.0
  0
LWPOLYLINE
  5
6B
100
AcDbEntity
  8
0
 62
-1
420
0
370
1
 48
1.0
  6
CONTINUOUS
100
AcDbPolyline
 90
2
 70
0
 10
212.05540466308594
 20
162.89213562011719
 30
0.0
 10
211.51152038574219
 20
164.55812072753906
 30
0.0
  0
LWPOLYLINE
  5
6C
100
AcDbEntity
  8
0
 62
-1
420
0
370
1
 48
1.0
  6
CONTINUOUS
100
AcDbPolyline
 90
2
 70
0
 10
208.11166381835937
 20
161.83522033691406
 30
0.0
 10
207.74491882324219
 20
163.54893493652344
 30
0.0
  0
LWPOLYLINE
  5
6D
100
AcDbEntity
  8
0
 62
-1
420
0
370
1
 48
1.0
  6
CONTINUOUS
100
AcDbPolyline
 90
2
 70
0
 10
204.07904052734375
 20
161.19636535644531
 30
0.0
 10
203.89341735839844
 20
162.93902587890625
 30
0.0
  0
LWPOLYLINE
  5
6E
100
AcDbEntity
  8
0
 62
-1
420
0
370
1
 48
1.0
  6
CONTINUOUS
100
AcDbPolyline
 90
2
 70
0
 10
200.00177001953125
 20
160.98246765136719
 30
0.0
 10
199.99932861328125
 20
162.7349853515625
 30
0.0
  0
LWPOLYLINE
  5
6F
100
AcDbEntity
  8
0
 62
-1
420
0
370
1
 48
1.0
  6
CONTINUOUS
100
AcDbPolyline
 90
2
 70
0
 10
195.9244384765625
 20
161.19598388671875
 30
0.0
 10
196.10519409179687
 20
162.93916320800781
 30
0.0
  0
LWPOLYLINE
  5
70
100
AcDbEntity
  8
0
 62
-1
420
0
370
1
 48
1.0
  6
CONTINUOUS
100
AcDbPolyline
 90
2
 70
0
 10
191.89176940917969
 20
161.83450317382812
 30
0.0
 10
192.25373840332031
 20
163.54922485351562
 30
0.0
  0
LWPOLYLINE
  5
71
100
AcDbEntity
  8
0
 62
-1
420
0
370
1
 48
1.0
  6
CONTINUOUS
100
AcDbPolyline
 90
2
 70
0
 10
187.94793701171875
 20
162.89105224609375
 30
0.0
 10
188.4871826171875
 20
164.55856323242187
 30
0.0
  0
LWPOLYLINE
  5
72
100
AcDbEntity
  8
0
 62
-1
420
0
370
1
 48
1.0
  6
CONTINUOUS
100
AcDbPolyline
 90
2
 70
0
 10
184.13613891601562
 20
164.35406494140625
 30
0.0
 10
184.84672546386719
 20
165.9560546875
 30
0.0
  0
LWPOLYLINE
  5
73
100
AcDbEntity
  8
0
 62
-1
420
0
370
1
 48
1.0
  6
CONTINUOUS
100
AcDbPolyline
 90
2
 70
0
 10
180.4981689453125
 20
166.20751953125
 30
0.0
 10
181.372314453125
 20
167.72645568847656
 30
0.0
  0
LWPOLYLINE
  5
74
100
AcDbEntity
  8
0
 62
-1
420
0
370
1
 48
1.0
  6
CONTINUOUS
100
AcDbPolyline
 90
2
 70
0
 10
177.07386779785156
 20
168.43104553222656
 30
0.0
 10
178.10198974609375
 20
169.85029602050781
 30
0.0
  0
LWPOLYLINE
  5
75
100
AcDbEntity
  8
0
 62
-1
420
0
370
1
 48
1.0
  6
CONTINUOUS
100
AcDbPolyline
 90
2
 70
0
 10
173.90074157714844
 20
171.00038146972656
 30
0.0
 10
175.07157897949219
 20
172.30438232421875
 30
0.0
  0
LWPOLYLINE
  5
76
100
AcDbEntity
  8
0
 62
-1
420
0
370
1
 48
1.0
  6
CONTINUOUS
100
AcDbPolyline
 90
2
 70
0
 10
171.0135498046875
 20
173.88726806640625
 30
0.0
 10
172.31428527832031
 20
175.06175231933594
 30
0.0
  0
LWPOLYLINE
  5
77
100
AcDbEntity
  8
0
 62
-1
420
0
370
1
 48
1.0
  6
CONTINUOUS
100
AcDbPolyline
 90
2
 70
0
 10
168.44393920898437
 20
177.06019592285156
 30
0.0
 10
169.86032104492187
 20
178.09228515625
 30
0.0
  0
LWPOLYLINE
  5
78
100
AcDbEntity
  8
0
 62
-1
420
0
370
1
 48
1.0
  6
CONTINUOUS
100
AcDbPolyline
 90
2
 70
0
 10
166.2200927734375
 20
180.48426818847656
 30
0.0
 10
167.73658752441406
 20
181.36264038085937
 30
0.0
  0
LWPOLYLINE
  5
79
100
AcDbEntity
  8
0
 62
-1
420
0
370
1
 48
1.0
  6
CONTINUOUS
100
AcDbPolyline
 90
2
 70
0
 10
164.36631774902344
 20
184.12208557128906
 30
0.0
 10
165.96633911132812
 20
184.83714294433594
 30
0.0
  0
LWPOLYLINE
  5
7A
100
AcDbEntity
  8
0
 62
-1
420
0
370
1
 48
1.0
  6
CONTINUOUS
100
AcDbPolyline
 90
2
 70
0
 10
162.9029541015625
 20
187.93376159667969
 30
0.0
 10
164.56893920898437
 20
188.47764587402344
 30
0.0
  0
LWPOLYLINE
  5
7B
100
AcDbEntity
  8
0
 62
-1
420
0
370
1
 48
1.0
  6
CONTINUOUS
100
AcDbPolyline
 90
2
 70
0
 10
161.84605407714844
 20
191.87748718261719
 30
0.0
 10
163.55976867675781
 20
192.24424743652344
 30
0.0
  0
LWPOLYLINE
  5
7C
100
AcDbEntity
  8
0
 62
-1
420
0
370
1
 48
1.0
  6
CONTINUOUS
100
AcDbPolyline
 90
2
 70
0
 10
161.2071533203125
 20
195.91007995605469
 30
0.0
 10
162.9498291015625
 20
196.095703125
 30
0.0
  0
LWPOLYLINE
  5
7D
100
AcDbEntity
  8
0
 62
-1
420
0
370
1
 48
1.0
  6
CONTINUOUS
100
AcDbPolyline
 90
2
 70
0
 10
160.99330139160156
 20
199.98736572265625
 30
0.0
 10
162.74580383300781
 20
199.98980712890625
 30
0.0
  0
LWPOLYLINE
  5
7E
100
AcDbEntity
  8
0
 62
-1
420
0
370
1
 48
1.0
  6
CONTINUOUS
100
AcDbPolyline
 90
2
 70
0
 10
161.206787109375
 20
204.06472778320312
 30
0.0
 10
162.94996643066406
 20
203.88397216796875
 30
0.0
  0
LWPOLYLINE
  5
7F
100
AcDbEntity
  8
0
 62
-1
420
0
370
1
 48
1.0
  6
CONTINUOUS
100
AcDbPolyline
 90
2
 70
0
 10
161.84530639648437
 20
208.09736633300781
 30
0.0
 10
163.56004333496094
 20
207.73539733886719
 30
0.0
  0
LWPOLYLINE
  5
80
100
AcDbEntity
  8
0
 62
-1
420
0
370
1
 48
1.0
  6
CONTINUOUS
100
AcDbPolyline
 90
2
 70
0
 10
162.90185546875
 20
212.04121398925781
 30
0.0
 10
164.56936645507812
 20
211.50196838378906
 30
0.0
  0
LWPOLYLINE
  5
81
100
AcDbEntity
  8
0
 62
-1
420
0
370
1
 48
1.0
  6
CONTINUOUS
100
AcDbPolyline
 90
2
 70
0
 10
164.3648681640625
 20
215.85301208496094
 30
0.0
 10
165.96687316894531
 20
215.14242553710937
 30
0.0
  0
LWPOLYLINE
  5
82
100
AcDbEntity
  8
0
 62
-1
420
0
370
1
 48
1.0
  6
CONTINUOUS
100
AcDbPolyline
 90
2
 70
0
 10
166.21830749511719
 20
219.49098205566406
 30
0.0
 10
167.73725891113281
 20
218.61683654785156
 30
0.0
  0
LWPOLYLINE
  5
83
100
AcDbEntity
  8
0
 62
-1
420
0
370
1
 48
1.0
  6
CONTINUOUS
100
AcDbPolyline
 90
2
 70
0
 10
168.44186401367188
 20
222.91529846191406
 30
0.0
 10
169.86111450195312
 20
221.88716125488281
 30
0.0
  0
LWPOLYLINE
  5
84
100
AcDbEntity
  8
0
 62
-1
420
0
370
1
 48
1.0
  6
CONTINUOUS
100
AcDbPolyline
 90
2
 70
0
 10
171.01116943359375
 20
226.08840942382812
 30
0.0
 10
172.315185546875
 20
224.91755676269531
 30
0.0
  0
LWPOLYLINE
  5
85
100
AcDbEntity
  8
0
 62
-1
420
0
370
1
 48
1.0
  6
CONTINUOUS
100
AcDbPolyline
 90
2
 70
0
 10
173.89808654785156
 20
228.9755859375
 30
0.0
 10
175.07255554199219
 20
227.67485046386719
 30
0.0
  0
LWPOLYLINE
  5
86
100
AcDbEntity
  8
0
 62
-1
420
0
370
1
 48
1.0
  6
CONTINUOUS
100
AcDbPolyline
 90
2
 70
0
 10
177.07098388671875
 20
231.54521179199219
 30
0.0
 10
178.10307312011719
 20
230.12882995605469
 30
0.0
  0
LWPOLYLINE
  5
87
100
AcDbEntity
  8
0
 62
-1
420
0
370
1
 48
1.0
  6
CONTINUOUS
100
AcDbPolyline
 90
2
 70
0
 10
180.49510192871094
 20
233.76907348632812
 30
0.0
 10
181.37347412109375
 20
232.2525634765625
 30
0.0
  0
LWPOLYLINE
  5
88
100
AcDbEntity
  8
0
 62
-1
420
0
370
1
 48
1.0
  6
CONTINUOUS
100
AcDbPolyline
 90
2
 70
0
 10
184.13290405273438
 20
235.62281799316406
 30
0.0
 10
184.84794616699219
 20
234.02279663085937
 30
0.0
  0
LWPOLYLINE
  5
89
100
AcDbEntity
  8
0
 62
-1
420
0
370
1
 48
1.0
  6
CONTINUOUS
100
AcDbPolyline
 90
2
 70
0
 10
187.94454956054687
 20
237.086181640625
 30
0.0
 10
188.48843383789063
 20
235.42019653320312
 30
0.0
  0
LWPOLYLINE
  5
8A
100
AcDbEntity
  8
0
 62
-1
420
0
370
1
 48
1.0
  6
CONTINUOUS
100
AcDbPolyline
 90
2
 70
0
 10
191.8883056640625
 20
238.14309692382812
 30
0.0
 10
192.25506591796875
 20
236.42938232421875
 30
0.0
  0
LWPOLYLINE
  5
8B
100
AcDbEntity
  8
0
 62
-1
420
0
370
1
 48
1.0
  6
CONTINUOUS
100
AcDbPolyline
 90
2
 70
0
 10
195.92091369628906
 20
238.78196716308594
 30
0.0
 10
196.10653686523437
 20
237.039306640625
 30
0.0
  0
ENDSEC
  0
SECTION
  2
OBJECTS
  0
DICTIONARY
  5
C
100
AcDbDictionary
280
0
281
1
  3
ACAD_GROUP
350
D
  3
ACAD_LAYOUT
350
1A
  3
ACAD_MLINESTYLE
350
17
  3
ACAD_PLOTSETTINGS
350
19
  3
ACAD_PLOTSTYLENAME
350
E
  3
AcDbVariableDictionary
350
8C
  0
DICTIONARY
  5
D
100
AcDbDictionary
280
0
281
1
  0
ACDBDICTIONARYWDFLT
  5
E
100
AcDbDictionary
281
1
  3
Normal
350
F
100
AcDbDictionaryWithDefault
340
F
  0
ACDBPLACEHOLDER
  5
F
  0
DICTIONARY
  5
17
100
AcDbDictionary
280
0
281
1
  3
Standard
350
18
  0
MLINESTYLE
  5
18
100
AcDbMlineStyle
  2
STANDARD
 70
0
  3

 62
256
 51
90.0
 52
90.0
 71
2
 49
0.5
 62
256
  6
BYLAYER
 49
-0.5
 62
256
  6
BYLAYER
  0
DICTIONARY
  5
19
100
AcDbDictionary
280
0
281
1
  0
DICTIONARY
  5
1A
100
AcDbDictionary
281
1
  3
Layout1
350
1E
  3
Layout2
350
26
  3
Model
350
22
  0
LAYOUT
  5
1E
100
AcDbPlotSettings
  1

  2
none_device
  4

  6

 40
0.0
 41
0.0
 42
0.0
 43
0.0
 44
0.0
 45
0.0
 46
0.0
 47
0.0
 48
0.0
 49
0.0
140
0.0
141
0.0
142
1.0
143
1.0
 70
688
 72
0
 73
0
 74
5
  7

 75
16
147
1.0
148
0.0
149
0.0
100
AcDbLayout
  1
Layout1
 70
1
 71
1
 10
0.0
 20
0.0
 11
420.0
 21
297.0
 12
0.0
 22
0.0
 32
0.0
 14
100000000000000000000.0
 24
100000000000000000000.0
 34
100000000000000000000.0
 15
-100000000000000000000.0
 25
-100000000000000000000.0
 35
-100000000000000000000.0
146
0.0
 13
0.0
 23
0.0
 33
0.0
 16
1.0
 26
0.0
 36
0.0
 17
0.0
 27
1.0
 37
0.0
 76
0
330
1B
  0
LAYOUT
  5
22
100
AcDbPlotSettings
  1

  2
none_device
  4

  6

 40
0.0
 41
0.0
 42
0.0
 43
0.0
 44
0.0
 45
0.0
 46
0.0
 47
0.0
 48
0.0
 49
0.0
140
0.0
141
0.0
142
1.0
143
1.0
 70
1712
 72
0
 73
0
 74
0
  7

 75
0
147
1.0
148
0.0
149
0.0
100
AcDbLayout
  1
Model
 70
1
 71
0
 10
0.0
 20
0.0
 11
12.0
 21
9.0
 12
0.0
 22
0.0
 32
0.0
 14
0.0
 24
0.0
 34
0.0
 15
0.0
 25
0.0
 35
0.0
146
0.0
 13
0.0
 23
0.0
 33
0.0
 16
1.0
 26
0.0
 36
0.0
 17
0.0
 27
1.0
 37
0.0
 76
0
330
1F
  0
LAYOUT
  5
26
100
AcDbPlotSettings
  1

  2
none_device
  4

  6

 40
0.0
 41
0.0
 42
0.0
 43
0.0
 44
0.0
 45
0.0
 46
0.0
 47
0.0
 48
0.0
 49
0.0
140
0.0
141
0.0
142
1.0
143
1.0
 70
688
 72
0
 73
0
 74
5
  7

 75
16
147
1.0
148
0.0
149
0.0
100
AcDbLayout
  1
Layout2
 70
1
 71
2
 10
0.0
 20
0.0
 11
12.0
 21
9.0
 12
0.0
 22
0.0
 32
0.0
 14
0.0
 24
0.0
 34
0.0
 15
0.0
 25
0.0
 35
0.0
146
0.0
 13
0.0
 23
0.0
 33
0.0
 16
1.0
 26
0.0
 36
0.0
 17
0.0
 27
1.0
 37
0.0
 76
0
330
23
  0
DICTIONARY
  5
8C
100
AcDbDictionary
281
1
  3
DIMASSOC
350
8E
  3
HIDETEXT
350
8D
  0
DICTIONARYVAR
  5
8D
100
DictionaryVariables
280
0
  1
2
  0
DICTIONARYVAR
  5
8E
100
DictionaryVariables
280
0
  1
1
  0
ENDSEC
  0
EOF
