999
dxflib 3.17.0.0
  0
SECTION
  2
HEADER
  9
$ACADVER
  1
AC1015
  9
$HANDSEED
  5
FFFF
  9
$INSUNITS
 70
4
  9
$DIMEXE
 40
1.25
  9
$TEXTSTYLE
  7
Standard
  9
$LIMMIN
 10
0.0
 20
0.0
  0
ENDSEC
  0
SECTION
  2
TABLES
  0
TABLE
  2
VPORT
  5
8
100
AcDbSymbolTable
 70
1
  0
VPORT
  5
30
100
AcDbSymbolTableRecord
100
AcDbViewportTableRecord
  2
*Active
 70
0
 10
0.0
 20
0.0
 11
1.0
 21
1.0
 12
286.30555555555549
 22
148.5
 13
0.0
 23
0.0
 14
10.0
 24
10.0
 15
10.0
 25
10.0
 16
0.0
 26
0.0
 36
1.0
 17
0.0
 27
0.0
 37
0.0
 40
297.0
 41
1.92798353909465
 42
50.0
 43
0.0
 44
0.0
 50
0.0
 51
0.0
 71
0
 72
100
 73
1
 74
3
 75
1
 76
1
 77
0
 78
0
281
0
 65
1
110
0.0
120
0.0
130
0.0
111
1.0
121
0.0
131
0.0
112
0.0
122
1.0
132
0.0
 79
0
146
0.0
  0
ENDTAB
  0
TABLE
  2
LTYPE
  5
5
100
AcDbSymbolTable
 70
25
  0
LTYPE
  5
14
100
AcDbSymbolTableRecord
100
AcDbLinetypeTableRecord
  2
BYBLOCK
 70
0
  3

 72
65
 73
0
 40
0.0
  0
LTYPE
  5
15
100
AcDbSymbolTableRecord
100
AcDbLinetypeTableRecord
  2
BYLAYER
 70
0
  3

 72
65
 73
0
 40
0.0
  0
LTYPE
  5
16
100
AcDbSymbolTableRecord
100
AcDbLinetypeTableRecord
  2
CONTINUOUS
 70
0
  3
Solid line
 72
65
 73
0
 40
0.0
  0
LTYPE
  5
31
100
AcDbSymbolTableRecord
100
AcDbLinetypeTableRecord
  2
ACAD_ISO02W100
 70
0
  3

 72
65
 73
0
 40
0.0
  0
LTYPE
  5
32
100
AcDbSymbolTableRecord
100
AcDbLinetypeTableRecord
  2
ACAD_ISO03W100
 70
0
  3

 72
65
 73
0
 40
0.0
  0
LTYPE
  5
33
100
AcDbSymbolTableRecord
100
AcDbLinetypeTableRecord
  2
ACAD_ISO04W100
 70
0
  3

 72
65
 73
0
 40
0.0
  0
LTYPE
  5
34
100
AcDbSymbolTableRecord
100
AcDbLinetypeTableRecord
  2
ACAD_ISO05W100
 70
0
  3

 72
65
 73
0
 40
0.0
  0
LTYPE
  5
35
100
AcDbSymbolTableRecord
100
AcDbLinetypeTableRecord
  2
BORDER
 70
0
  3

 72
65
 73
0
 40
0.0
  0
LTYPE
  5
36
100
AcDbSymbolTableRecord
100
AcDbLinetypeTableRecord
  2
BORDER2
 70
0
  3

 72
65
 73
0
 40
0.0
  0
LTYPE
  5
37
100
AcDbSymbolTableRecord
100
AcDbLinetypeTableRecord
  2
BORDERX2
 70
0
  3

 72
65
 73
0
 40
0.0
  0
LTYPE
  5
38
100
AcDbSymbolTableRecord
100
AcDbLinetypeTableRecord
  2
CENTER
 70
0
  3

 72
65
 73
0
 40
0.0
  0
LTYPE
  5
39
100
AcDbSymbolTableRecord
100
AcDbLinetypeTableRecord
  2
CENTER2
 70
0
  3

 72
65
 73
0
 40
0.0
  0
LTYPE
  5
3A
100
AcDbSymbolTableRecord
100
AcDbLinetypeTableRecord
  2
CENTERX2
 70
0
  3

 72
65
 73
0
 40
0.0
  0
LTYPE
  5
3B
100
AcDbSymbolTableRecord
100
AcDbLinetypeTableRecord
  2
DASHDOT
 70
0
  3

 72
65
 73
0
 40
0.0
  0
LTYPE
  5
3C
100
AcDbSymbolTableRecord
100
AcDbLinetypeTableRecord
  2
DASHDOT2
 70
0
  3

 72
65
 73
0
 40
0.0
  0
LTYPE
  5
3D
100
AcDbSymbolTableRecord
100
AcDbLinetypeTableRecord
  2
DASHDOTX2
 70
0
  3

 72
65
 73
0
 40
0.0
  0
LTYPE
  5
3E
100
AcDbSymbolTableRecord
100
AcDbLinetypeTableRecord
  2
DASHED
 70
0
  3

 72
65
 73
0
 40
0.0
  0
LTYPE
  5
3F
100
AcDbSymbolTableRecord
100
AcDbLinetypeTableRecord
  2
DASHED2
 70
0
  3

 72
65
 73
0
 40
0.0
  0
LTYPE
  5
40
100
AcDbSymbolTableRecord
100
AcDbLinetypeTableRecord
  2
DASHEDX2
 70
0
  3

 72
65
 73
0
 40
0.0
  0
LTYPE
  5
41
100
AcDbSymbolTableRecord
100
AcDbLinetypeTableRecord
  2
DIVIDE
 70
0
  3

 72
65
 73
0
 40
0.0
  0
LTYPE
  5
42
100
AcDbSymbolTableRecord
100
AcDbLinetypeTableRecord
  2
DIVIDE2
 70
0
  3

 72
65
 73
0
 40
0.0
  0
LTYPE
  5
43
100
AcDbSymbolTableRecord
100
AcDbLinetypeTableRecord
  2
DIVIDEX2
 70
0
  3

 72
65
 73
0
 40
0.0
  0
LTYPE
  5
44
100
AcDbSymbolTableRecord
100
AcDbLinetypeTableRecord
  2
DOT
 70
0
  3

 72
65
 73
0
 40
0.0
  0
LTYPE
  5
45
100
AcDbSymbolTableRecord
100
AcDbLinetypeTableRecord
  2
DOT2
 70
0
  3

 72
65
 73
0
 40
0.0
  0
LTYPE
  5
46
100
AcDbSymbolTableRecord
100
AcDbLinetypeTableRecord
  2
DOTX2
 70
0
  3

 72
65
 73
0
 40
0.0
  0
ENDTAB
  0
TABLE
  2
LAYER
  5
2
100
AcDbSymbolTable
 70
1
  0
LAYER
  5
10
100
AcDbSymbolTableRecord
100
AcDbLayerTableRecord
  2
0
 70
0
 62
-1
420
0
  6
CONTINUOUS
370
1
390
F
  0
ENDTAB
  0
STYLE
  5
47
100
AcDbSymbolTableRecord
100
AcDbTextStyleTableRecord
  2

 70
0
 40
0.0
 41
0.0
 50
0.0
 71
0
 42
0.0
  3

  4

1001
ACAD
1000

1071
0
  0
TABLE
  2
VIEW
  5
6
100
AcDbSymbolTable
 70
0
  0
ENDTAB
  0
TABLE
  2
UCS
  5
7
100
AcDbSymbolTable
 70
0
  0
ENDTAB
  0
TABLE
  2
APPID
  5
9
100
AcDbSymbolTable
 70
1
  0
APPID
  5
12
100
AcDbSymbolTableRecord
100
AcDbRegAppTableRecord
  2
ACAD
 70
0
  0
ENDTAB
  0
TABLE
  2
DIMSTYLE
  5
A
100
AcDbSymbolTable
 70
1
100
AcDbDimStyleTable
 71
0
  0
DIMSTYLE
105
27
100
AcDbSymbolTableRecord
100
AcDbDimStyleTableRecord
  2
Standard
 41
1.0
 42
1.0
 43
3.75
 44
1.0
 70
0
 73
0
 74
0
 77
1
 78
8
140
1.0
141
2.5
143
0.03937007874016
147
1.0
171
3
172
1
271
2
272
2
274
3
278
44
283
0
284
8
340
45A8D400
  0
ENDTAB
  0
TABLE
  2
BLOCK_RECORD
  5
1
100
AcDbSymbolTable
 70
1
  0
BLOCK_RECORD
  5
1F
100
AcDbSymbolTableRecord
100
AcDbBlockTableRecord
  2
*Model_Space
340
22
  0
BLOCK_RECORD
  5
1B
100
AcDbSymbolTableRecord
100
AcDbBlockTableRecord
  2
*Paper_Space
340
1E
  0
BLOCK_RECORD
  5
23
100
AcDbSymbolTableRecord
100
AcDbBlockTableRecord
  2
*Paper_Space0
340
26
  0
BLOCK_RECORD
  5
48
100
AcDbSymbolTableRecord
100
AcDbBlockTableRecord
  2
myblock1
340
0
  0
BLOCK_RECORD
  5
49
100
AcDbSymbolTableRecord
100
AcDbBlockTableRecord
  2
myblock2
340
0
  0
ENDTAB
  0
ENDSEC
  0
SECTION
  2
BLOCKS
  0
BLOCK
  5
20
100
AcDbEntity
  8
0
100
AcDbBlockBegin
  2
*Model_Space
 70
0
 10
0.0
 20
0.0
 30
0.0
  3
*Model_Space
  1

  0
ENDBLK
  5
21
100
AcDbEntity
  8
0
100
AcDbBlockEnd
  0
BLOCK
  5
1C
100
AcDbEntity
 67
1
  8
0
100
AcDbBlockBegin
  2
*Paper_Space
 70
0
 10
0.0
 20
0.0
 30
0.0
  3
*Paper_Space
  1

  0
ENDBLK
  5
1D
100
AcDbEntity
 67
1
  8
0
100
AcDbBlockEnd
  0
BLOCK
  5
24
100
AcDbEntity
  8
0
100
AcDbBlockBegin
  2
*Paper_Space0
 70
0
 10
0.0
 20
0.0
 30
0.0
  3
*Paper_Space0
  1

  0
ENDBLK
  5
25
100
AcDbEntity
  8
0
100
AcDbBlockEnd
  0
BLOCK
  5
4A
100
AcDbEntity
  8
0
100
AcDbBlockBegin
  2
myblock1
 70
0
 10
0.0
 20
0.0
 30
0.0
  3
myblock1
  1

  0
ENDBLK
  5
4B
100
AcDbEntity
  8
0
100
AcDbBlockEnd
  0
BLOCK
  5
4C
100
AcDbEntity
  8
0
100
AcDbBlockBegin
  2
myblock2
 70
0
 10
0.0
 20
0.0
 30
0.0
  3
myblock2
  1

  0
ENDBLK
  5
4D
100
AcDbEntity
  8
0
100
AcDbBlockEnd
  0
ENDSEC
  0
SECTION
  2
ENTITIES
  0
LWPOLYLINE
  5
4E
100
AcDbEntity
  8
0
 62
-1
420
0
370
1
 48
1.0
  6
CONTINUOUS
100
AcDbPolyline
 90
131
 70
0
 10
231.27569580078125
 20
182.23367309570312
 30
0.0
 10
206.68968200683594
 20
196.42839050292969
 30
0.0
 10
206.83499145507812
 20
196.71249389648438
 30
0.0
 10
206.98748779296875
 20
197.05000305175781
 30
0.0
 10
207.12248229980469
 20
197.39250183105469
 30
0.0
 10
207.239990234375
 20
197.7449951171875
 30
0.0
 10
207.34248352050781
 20
198.10499572753906
 30
0.0
 10
207.427490234375
 20
198.47250366210937
 30
0.0
 10
207.4949951171875
 20
198.84500122070312
 30
0.0
 10
207.54248046875
 20
199.22499084472656
 30
0.0
 10
207.57249450683594
 20
199.61000061035156
 30
0.0
 10
207.58248901367187
 20
200.0
 30
0.0
 10
207.57249450683594
 20
200.38999938964844
 30
0.0
 10
207.54248046875
 20
200.77499389648437
 30
0.0
 10
207.4949951171875
 20
201.15499877929687
 30
0.0
 10
207.427490234375
 20
201.52749633789063
 30
0.0
 10
207.34498596191406
 20
201.89500427246094
 30
0.0
 10
207.24249267578125
 20
202.25498962402344
 30
0.0
 10
207.12248229980469
 20
202.60749816894531
 30
0.0
 10
206.98748779296875
 20
202.95249938964844
 30
0.0
 10
206.83499145507812
 20
203.28749084472656
 30
0.0
 10
206.66748046875
 20
203.614990234375
 30
0.0
 10
206.4849853515625
 20
203.9324951171875
 30
0.0
 10
206.28749084472656
 20
204.239990234375
 30
0.0
 10
205.84999084472656
 20
204.82249450683594
 30
0.0
 10
205.36248779296875
 20
205.36250305175781
 30
0.0
 10
204.82249450683594
 20
205.84999084472656
 30
0.0
 10
204.239990234375
 20
206.28749084472656
 30
0.0
 10
203.9324951171875
 20
206.48500061035156
 30
0.0
 10
203.614990234375
 20
206.66749572753906
 30
0.0
 10
203.28749084472656
 20
206.83499145507812
 30
0.0
 10
202.94998168945313
 20
206.98750305175781
 30
0.0
 10
202.60748291015625
 20
207.12249755859375
 30
0.0
 10
202.32011413574219
 20
207.22032165527344
 30
0.0
 10
202.32008361816406
 20
220.00010681152344
 30
0.0
 10
201.619384765625
 20
220.00010681152344
 30
0.0
 10
201.61943054199219
 20
207.40872192382812
 30
0.0
 10
201.52748107910156
 20
207.42999267578125
 30
0.0
 10
201.3331298828125
 20
207.46391296386719
 30
0.0
 10
201.33308410644531
 20
225.51385498046875
 30
0.0
 10
200.63243103027344
 20
225.51385498046875
 30
0.0
 10
200.63246154785156
 20
207.55517578125
 30
0.0
 10
200.38998413085937
 20
207.57249450683594
 30
0.0
 10
200.34010314941406
 20
207.57377624511719
 30
0.0
 10
200.34010314941406
 20
228.56719970703125
 30
0.0
 10
199.63934326171875
 20
228.5672607421875
 30
0.0
 10
199.63938903808594
 20
207.5732421875
 30
0.0
 10
199.6099853515625
 20
207.57249450683594
 30
0.0
 10
199.34918212890625
 20
207.55216979980469
 30
0.0
 10
199.34912109375
 20
222.63751220703125
 30
0.0
 10
198.64840698242187
 20
222.63748168945312
 30
0.0
 10
198.64846801757812
 20
207.45938110351562
 30
0.0
 10
198.47248840332031
 20
207.427490234375
 30
0.0
 10
198.10498046875
 20
207.34500122070312
 30
0.0
 10
197.7449951171875
 20
207.24249267578125
 30
0.0
 10
197.39248657226562
 20
207.12249755859375
 30
0.0
 10
197.0474853515625
 20
206.98750305175781
 30
0.0
 10
196.71249389648438
 20
206.83499145507812
 30
0.0
 10
196.38499450683594
 20
206.66749572753906
 30
0.0
 10
196.06748962402344
 20
206.48500061035156
 30
0.0
 10
195.75999450683594
 20
206.28749084472656
 30
0.0
 10
195.177490234375
 20
205.84999084472656
 30
0.0
 10
194.63748168945312
 20
205.36250305175781
 30
0.0
 10
194.14999389648437
 20
204.82249450683594
 30
0.0
 10
193.71249389648437
 20
204.239990234375
 30
0.0
 10
193.51498413085937
 20
203.9324951171875
 30
0.0
 10
193.33248901367187
 20
203.614990234375
 30
0.0
 10
193.16499328613281
 20
203.28749084472656
 30
0.0
 10
193.01248168945312
 20
202.95249938964844
 30
0.0
 10
192.87748718261719
 20
202.60749816894531
 30
0.0
 10
192.75749206542969
 20
202.25498962402344
 30
0.0
 10
192.65498352050781
 20
201.89500427246094
 30
0.0
 10
192.56999206542969
 20
201.52749633789063
 30
0.0
 10
192.50498962402344
 20
201.15499877929687
 30
0.0
 10
192.45498657226562
 20
200.77499389648437
 30
0.0
 10
192.427490234375
 20
200.38999938964844
 30
0.0
 10
192.41748046875
 20
200.0
 30
0.0
 10
192.427490234375
 20
199.61000061035156
 30
0.0
 10
192.45748901367188
 20
199.22499084472656
 30
0.0
 10
192.50498962402344
 20
198.84500122070312
 30
0.0
 10
192.57249450683594
 20
198.47250366210937
 30
0.0
 10
192.65498352050781
 20
198.10499572753906
 30
0.0
 10
192.75749206542969
 20
197.7449951171875
 30
0.0
 10
192.8648681640625
 20
197.42955017089844
 30
0.0
 10
176.8233642578125
 20
188.16793823242187
 30
0.0
 10
177.1737060546875
 20
187.56112670898437
 30
0.0
 10
193.13571166992187
 20
196.77682495117187
 30
0.0
 10
193.16499328613281
 20
196.71249389648438
 30
0.0
 10
193.26483154296875
 20
196.51727294921875
 30
0.0
 10
172.57748413085937
 20
184.57342529296875
 30
0.0
 10
172.92782592773437
 20
183.96662902832031
 30
0.0
 10
193.61564636230469
 20
195.9107666015625
 30
0.0
 10
193.71249389648437
 20
195.75999450683594
 30
0.0
 10
193.77925109863281
 20
195.67111206054687
 30
0.0
 10
175.77851867675781
 20
185.27839660644531
 30
0.0
 10
176.12884521484375
 20
184.67153930664062
 30
0.0
 10
194.21015930175781
 20
195.11083984375
 30
0.0
 10
194.63748168945312
 20
194.63749694824219
 30
0.0
 10
195.177490234375
 20
194.14999389648437
 30
0.0
 10
195.75999450683594
 20
193.71249389648437
 30
0.0
 10
196.06748962402344
 20
193.51499938964844
 30
0.0
 10
196.38499450683594
 20
193.33250427246094
 30
0.0
 10
196.71249389648438
 20
193.16499328613281
 30
0.0
 10
197.0474853515625
 20
193.01249694824219
 30
0.0
 10
197.39248657226562
 20
192.87750244140625
 30
0.0
 10
197.7449951171875
 20
192.75999450683594
 30
0.0
 10
198.10498046875
 20
192.65750122070313
 30
0.0
 10
198.47248840332031
 20
192.57249450683594
 30
0.0
 10
198.84498596191406
 20
192.50498962402344
 30
0.0
 10
199.22499084472656
 20
192.45750427246094
 30
0.0
 10
199.6099853515625
 20
192.427490234375
 30
0.0
 10
199.99998474121094
 20
192.41749572753906
 30
0.0
 10
200.38998413085937
 20
192.427490234375
 30
0.0
 10
200.77499389648437
 20
192.45750427246094
 30
0.0
 10
201.15498352050781
 20
192.50498962402344
 30
0.0
 10
201.52748107910156
 20
192.57249450683594
 30
0.0
 10
201.89498901367188
 20
192.65499877929687
 30
0.0
 10
202.25498962402344
 20
192.75749206542969
 30
0.0
 10
202.60748291015625
 20
192.87750244140625
 30
0.0
 10
202.95248413085937
 20
193.01249694824219
 30
0.0
 10
203.28749084472656
 20
193.16499328613281
 30
0.0
 10
203.614990234375
 20
193.33250427246094
 30
0.0
 10
203.9324951171875
 20
193.51499938964844
 30
0.0
 10
204.239990234375
 20
193.71249389648437
 30
0.0
 10
204.82249450683594
 20
194.14999389648437
 30
0.0
 10
205.36248779296875
 20
194.63749694824219
 30
0.0
 10
205.84999084472656
 20
195.177490234375
 30
0.0
 10
206.28749084472656
 20
195.75999450683594
 30
0.0
 10
206.43894958496094
 20
195.99580383300781
 30
0.0
 10
231.02569580078125
 20
181.80067443847656
 30
0.0
 10
231.27569580078125
 20
182.23367309570312
 30
0.0
  0
LWPOLYLINE
  5
4F
100
AcDbEntity
  8
0
 62
-1
420
0
370
1
 48
1.0
  6
CONTINUOUS
100
AcDbPolyline
 90
6
 70
0
 10
208.50224304199219
 20
231.7281494140625
 30
0.0
 10
208.79670715332031
 20
231.21810913085937
 30
0.0
 10
208.28666687011719
 20
230.92361450195312
 30
0.0
 10
207.99217224121094
 20
231.43368530273437
 30
0.0
 10
208.50224304199219
 20
231.7281494140625
 30
0.0
 10
208.50224304199219
 20
231.7281494140625
 30
0.0
  0
LWPOLYLINE
  5
50
100
AcDbEntity
  8
0
 62
-1
420
0
370
1
 48
1.0
  6
CONTINUOUS
100
AcDbPolyline
 90
11
 70
0
 10
208.28211975097656
 20
230.56021118164062
 30
0.0
 10
208.33583068847656
 20
230.7607421875
 30
0.0
 10
209.02302551269531
 20
231.157470703125
 30
0.0
 10
208.56288146972656
 20
231.95443725585937
 30
0.0
 10
207.76588439941406
 20
231.49432373046875
 30
0.0
 10
208.15843200683594
 20
230.814453125
 30
0.0
 10
208.10374450683594
 20
230.61038208007812
 30
0.0
 10
207.34312438964844
 20
229.1785888671875
 30
0.0
 10
208.22969055175781
 20
228.9410400390625
 30
0.0
 10
208.28211975097656
 20
230.56021118164062
 30
0.0
 10
208.28211975097656
 20
230.56021118164062
 30
0.0
  0
LWPOLYLINE
  5
51
100
AcDbEntity
  8
0
 62
-1
420
0
370
1
 48
1.0
  6
CONTINUOUS
100
AcDbPolyline
 90
6
 70
0
 10
223.22724914550781
 20
223.22628784179687
 30
0.0
 10
223.22724914550781
 20
222.6373291015625
 30
0.0
 10
222.63829040527344
 20
222.6373291015625
 30
0.0
 10
222.63829040527344
 20
223.22628784179687
 30
0.0
 10
223.22724914550781
 20
223.22628784179687
 30
0.0
 10
223.22724914550781
 20
223.22628784179687
 30
0.0
  0
LWPOLYLINE
  5
52
100
AcDbEntity
  8
0
 62
-1
420
0
370
1
 48
1.0
  6
CONTINUOUS
100
AcDbPolyline
 90
11
 70
0
 10
222.45262145996094
 20
222.32485961914063
 30
0.0
 10
222.59941101074219
 20
222.47164916992187
 30
0.0
 10
223.39289855957031
 20
222.47164916992187
 30
0.0
 10
223.39289855957031
 20
223.39190673828125
 30
0.0
 10
222.47261047363281
 20
223.39193725585937
 30
0.0
 10
222.47264099121094
 20
222.60687255859375
 30
0.0
 10
222.32322692871094
 20
222.45748901367188
 30
0.0
 10
220.94862365722656
 20
221.59783935546875
 30
0.0
 10
221.59764099121094
 20
220.94882202148437
 30
0.0
 10
222.45262145996094
 20
222.32485961914063
 30
0.0
 10
222.45262145996094
 20
222.32485961914063
 30
0.0
  0
LWPOLYLINE
  5
53
100
AcDbEntity
  8
0
 62
-1
420
0
370
1
 48
1.0
  6
CONTINUOUS
100
AcDbPolyline
 90
6
 70
0
 10
231.72853088378906
 20
208.50091552734375
 30
0.0
 10
231.43403625488281
 20
207.99087524414062
 30
0.0
 10
230.92399597167969
 20
208.28533935546875
 30
0.0
 10
231.21846008300781
 20
208.79541015625
 30
0.0
 10
231.72853088378906
 20
208.50091552734375
 30
0.0
 10
231.72853088378906
 20
208.50091552734375
 30
0.0
  0
LWPOLYLINE
  5
54
100
AcDbEntity
  8
0
 62
-1
420
0
370
1
 48
1.0
  6
CONTINUOUS
100
AcDbPolyline
 90
11
 70
0
 10
230.60697937011719
 20
208.10757446289062
 30
0.0
 10
230.80751037597656
 20
208.16131591796875
 30
0.0
 10
231.49467468261719
 20
207.76455688476562
 30
0.0
 10
231.95481872558594
 20
208.5615234375
 30
0.0
 10
231.15782165527344
 20
209.02169799804687
 30
0.0
 10
230.76533508300781
 20
208.341796875
 30
0.0
 10
230.56123352050781
 20
208.287109375
 30
0.0
 10
228.94096374511719
 20
208.22994995117187
 30
0.0
 10
229.17851257324219
 20
207.3433837890625
 30
0.0
 10
230.60697937011719
 20
208.10757446289062
 30
0.0
 10
230.60697937011719
 20
208.10757446289062
 30
0.0
  0
LWPOLYLINE
  5
55
100
AcDbEntity
  8
0
 62
-1
420
0
370
1
 48
1.0
  6
CONTINUOUS
100
AcDbPolyline
 90
6
 70
0
 10
231.72819519042969
 20
191.49774169921875
 30
0.0
 10
231.21812438964844
 20
191.20327758789063
 30
0.0
 10
230.92366027832031
 20
191.71331787109375
 30
0.0
 10
231.43370056152344
 20
192.0078125
 30
0.0
 10
231.72819519042969
 20
191.49774169921875
 30
0.0
 10
231.72819519042969
 20
191.49774169921875
 30
0.0
  0
LWPOLYLINE
  5
56
100
AcDbEntity
  8
0
 62
-1
420
0
370
1
 48
1.0
  6
CONTINUOUS
100
AcDbPolyline
 90
11
 70
0
 10
230.56022644042969
 20
191.71786499023437
 30
0.0
 10
230.76075744628906
 20
191.66415405273437
 30
0.0
 10
231.15748596191406
 20
190.97695922851563
 30
0.0
 10
231.95445251464844
 20
191.43710327148437
 30
0.0
 10
231.49433898925781
 20
192.23410034179687
 30
0.0
 10
230.81446838378906
 20
191.841552734375
 30
0.0
 10
230.61039733886719
 20
191.896240234375
 30
0.0
 10
229.17860412597656
 20
192.6568603515625
 30
0.0
 10
228.94105529785156
 20
191.77029418945312
 30
0.0
 10
230.56022644042969
 20
191.71786499023437
 30
0.0
 10
230.56022644042969
 20
191.71786499023437
 30
0.0
  0
LWPOLYLINE
  5
57
100
AcDbEntity
  8
0
 62
-1
420
0
370
1
 48
1.0
  6
CONTINUOUS
100
AcDbPolyline
 90
6
 70
0
 10
223.22630310058594
 20
176.772705078125
 30
0.0
 10
222.63734436035156
 20
176.77273559570312
 30
0.0
 10
222.63734436035156
 20
177.3616943359375
 30
0.0
 10
223.22630310058594
 20
177.3616943359375
 30
0.0
 10
223.22630310058594
 20
176.772705078125
 30
0.0
 10
223.22630310058594
 20
176.772705078125
 30
0.0
  0
LWPOLYLINE
  5
58
100
AcDbEntity
  8
0
 62
-1
420
0
370
1
 48
1.0
  6
CONTINUOUS
100
AcDbPolyline
 90
11
 70
0
 10
222.32487487792969
 20
177.54733276367187
 30
0.0
 10
222.47166442871094
 20
177.40054321289062
 30
0.0
 10
222.47166442871094
 20
176.60708618164062
 30
0.0
 10
223.39192199707031
 20
176.60708618164062
 30
0.0
 10
223.39195251464844
 20
177.52734375
 30
0.0
 10
222.60688781738281
 20
177.52734375
 30
0.0
 10
222.45750427246094
 20
177.67672729492187
 30
0.0
 10
221.59785461425781
 20
179.05136108398438
 30
0.0
 10
220.94883728027344
 20
178.40234375
 30
0.0
 10
222.32487487792969
 20
177.54733276367187
 30
0.0
 10
222.32487487792969
 20
177.54733276367187
 30
0.0
  0
LWPOLYLINE
  5
59
100
AcDbEntity
  8
0
 62
-1
420
0
370
1
 48
1.0
  6
CONTINUOUS
100
AcDbPolyline
 90
6
 70
0
 10
208.50093078613281
 20
168.27145385742187
 30
0.0
 10
207.99085998535156
 20
168.56594848632812
 30
0.0
 10
208.28535461425781
 20
169.07598876953125
 30
0.0
 10
208.79539489746094
 20
168.78152465820312
 30
0.0
 10
208.50093078613281
 20
168.27145385742187
 30
0.0
 10
208.50093078613281
 20
168.27145385742187
 30
0.0
  0
LWPOLYLINE
  5
5A
100
AcDbEntity
  8
0
 62
-1
420
0
370
1
 48
1.0
  6
CONTINUOUS
100
AcDbPolyline
 90
11
 70
0
 10
208.10758972167969
 20
169.39300537109375
 30
0.0
 10
208.16130065917969
 20
169.1925048828125
 30
0.0
 10
207.76457214355469
 20
168.50531005859375
 30
0.0
 10
208.56153869628906
 20
168.04519653320312
 30
0.0
 10
209.02168273925781
 20
168.8421630859375
 30
0.0
 10
208.34178161621094
 20
169.23468017578125
 30
0.0
 10
208.28712463378906
 20
169.43875122070312
 30
0.0
 10
208.22996520996094
 20
171.05902099609375
 30
0.0
 10
207.34336853027344
 20
170.82147216796875
 30
0.0
 10
208.10758972167969
 20
169.39300537109375
 30
0.0
 10
208.10758972167969
 20
169.39300537109375
 30
0.0
  0
LWPOLYLINE
  5
5B
100
AcDbEntity
  8
0
 62
-1
420
0
370
1
 48
1.0
  6
CONTINUOUS
100
AcDbPolyline
 90
6
 70
0
 10
191.49778747558594
 20
168.27178955078125
 30
0.0
 10
191.20329284667969
 20
168.7818603515625
 30
0.0
 10
191.71336364746094
 20
169.07632446289062
 30
0.0
 10
192.00782775878906
 20
168.5662841796875
 30
0.0
 10
191.49778747558594
 20
168.27178955078125
 30
0.0
 10
191.49778747558594
 20
168.27178955078125
 30
0.0
  0
LWPOLYLINE
  5
5C
100
AcDbEntity
  8
0
 62
-1
420
0
370
1
 48
1.0
  6
CONTINUOUS
100
AcDbPolyline
 90
11
 70
0
 10
191.71791076660156
 20
169.43972778320312
 30
0.0
 10
191.66416931152344
 20
169.23922729492187
 30
0.0
 10
190.97700500488281
 20
168.84246826171875
 30
0.0
 10
191.43711853027344
 20
168.04550170898437
 30
0.0
 10
192.23411560058594
 20
168.50564575195312
 30
0.0
 10
191.84156799316406
 20
169.18551635742187
 30
0.0
 10
191.89625549316406
 20
169.38958740234375
 30
0.0
 10
192.65690612792969
 20
170.82135009765625
 30
0.0
 10
191.77030944824219
 20
171.05892944335937
 30
0.0
 10
191.71791076660156
 20
169.43972778320312
 30
0.0
 10
191.71791076660156
 20
169.43972778320312
 30
0.0
  0
LWPOLYLINE
  5
5D
100
AcDbEntity
  8
0
 62
-1
420
0
370
1
 48
1.0
  6
CONTINUOUS
100
AcDbPolyline
 90
6
 70
0
 10
176.77275085449219
 20
176.773681640625
 30
0.0
 10
176.77275085449219
 20
177.36264038085937
 30
0.0
 10
177.36170959472656
 20
177.36264038085937
 30
0.0
 10
177.36170959472656
 20
176.773681640625
 30
0.0
 10
176.77275085449219
 20
176.773681640625
 30
0.0
 10
176.77275085449219
 20
176.773681640625
 30
0.0
  0
LWPOLYLINE
  5
5E
100
AcDbEntity
  8
0
 62
-1
420
0
370
1
 48
1.0
  6
CONTINUOUS
100
AcDbPolyline
 90
11
 70
0
 10
177.54734802246094
 20
177.67507934570312
 30
0.0
 10
177.40055847167969
 20
177.52828979492187
 30
0.0
 10
176.60707092285156
 20
177.52828979492187
 30
0.0
 10
176.60707092285156
 20
176.6080322265625
 30
0.0
 10
177.52735900878906
 20
176.6080322265625
 30
0.0
 10
177.52735900878906
 20
177.39309692382812
 30
0.0
 10
177.67674255371094
 20
177.54248046875
 30
0.0
 10
179.05134582519531
 20
178.40213012695312
 30
0.0
 10
178.40232849121094
 20
179.0511474609375
 30
0.0
 10
177.54734802246094
 20
177.67507934570312
 30
0.0
 10
177.54734802246094
 20
177.67507934570312
 30
0.0
  0
LWPOLYLINE
  5
5F
100
AcDbEntity
  8
0
 62
-1
420
0
370
1
 48
1.0
  6
CONTINUOUS
100
AcDbPolyline
 90
6
 70
0
 10
168.27146911621094
 20
191.4990234375
 30
0.0
 10
168.56593322753906
 20
192.00906372070312
 30
0.0
 10
169.07600402832031
 20
191.714599609375
 30
0.0
 10
168.78150939941406
 20
191.20452880859375
 30
0.0
 10
168.27146911621094
 20
191.4990234375
 30
0.0
 10
168.27146911621094
 20
191.4990234375
 30
0.0
  0
LWPOLYLINE
  5
60
100
AcDbEntity
  8
0
 62
-1
420
0
370
1
 48
1.0
  6
CONTINUOUS
100
AcDbPolyline
 90
11
 70
0
 10
169.39299011230469
 20
191.89239501953125
 30
0.0
 10
169.19248962402344
 20
191.83865356445312
 30
0.0
 10
168.50529479980469
 20
192.23538208007812
 30
0.0
 10
168.04518127441406
 20
191.43841552734375
 30
0.0
 10
168.84214782714844
 20
190.978271484375
 30
0.0
 10
169.23466491699219
 20
191.65817260742187
 30
0.0
 10
169.43873596191406
 20
191.71282958984375
 30
0.0
 10
171.05900573730469
 20
191.76998901367188
 30
0.0
 10
170.82145690917969
 20
192.65658569335937
 30
0.0
 10
169.39299011230469
 20
191.89239501953125
 30
0.0
 10
169.39299011230469
 20
191.89239501953125
 30
0.0
  0
LWPOLYLINE
  5
61
100
AcDbEntity
  8
0
 62
-1
420
0
370
1
 48
1.0
  6
CONTINUOUS
100
AcDbPolyline
 90
6
 70
0
 10
168.27180480957031
 20
208.502197265625
 30
0.0
 10
168.78184509277344
 20
208.79666137695312
 30
0.0
 10
169.07633972167969
 20
208.28662109375
 30
0.0
 10
168.56626892089844
 20
207.99212646484375
 30
0.0
 10
168.27180480957031
 20
208.502197265625
 30
0.0
 10
168.27180480957031
 20
208.502197265625
 30
0.0
  0
LWPOLYLINE
  5
62
100
AcDbEntity
  8
0
 62
-1
420
0
370
1
 48
1.0
  6
CONTINUOUS
100
AcDbPolyline
 90
11
 70
0
 10
169.43974304199219
 20
208.28207397460938
 30
0.0
 10
169.23924255371094
 20
208.33578491210937
 30
0.0
 10
168.84248352050781
 20
209.02297973632812
 30
0.0
 10
168.04551696777344
 20
208.56283569335937
 30
0.0
 10
168.50566101074219
 20
207.76583862304688
 30
0.0
 10
169.18553161621094
 20
208.15838623046875
 30
0.0
 10
169.38960266113281
 20
208.10369873046875
 30
0.0
 10
170.82136535644531
 20
207.34307861328125
 30
0.0
 10
171.05894470214844
 20
208.22964477539062
 30
0.0
 10
169.43974304199219
 20
208.28207397460938
 30
0.0
 10
169.43974304199219
 20
208.28207397460938
 30
0.0
  0
LWPOLYLINE
  5
63
100
AcDbEntity
  8
0
 62
-1
420
0
370
1
 48
1.0
  6
CONTINUOUS
100
AcDbPolyline
 90
6
 70
0
 10
176.77369689941406
 20
223.22723388671875
 30
0.0
 10
177.36265563964844
 20
223.22723388671875
 30
0.0
 10
177.36265563964844
 20
222.63827514648437
 30
0.0
 10
176.77369689941406
 20
222.63827514648437
 30
0.0
 10
176.77369689941406
 20
223.22723388671875
 30
0.0
 10
176.77369689941406
 20
223.22723388671875
 30
0.0
  0
LWPOLYLINE
  5
64
100
AcDbEntity
  8
0
 62
-1
420
0
370
1
 48
1.0
  6
CONTINUOUS
100
AcDbPolyline
 90
11
 70
0
 10
177.67509460449219
 20
222.45263671875
 30
0.0
 10
177.52830505371094
 20
222.59942626953125
 30
0.0
 10
177.52830505371094
 20
223.39291381835937
 30
0.0
 10
176.60804748535156
 20
223.39291381835937
 30
0.0
 10
176.60804748535156
 20
222.47262573242187
 30
0.0
 10
177.39311218261719
 20
222.47262573242187
 30
0.0
 10
177.54249572753906
 20
222.3232421875
 30
0.0
 10
178.40211486816406
 20
220.9486083984375
 30
0.0
 10
179.05116271972656
 20
221.59765625
 30
0.0
 10
177.67509460449219
 20
222.45263671875
 30
0.0
 10
177.67509460449219
 20
222.45263671875
 30
0.0
  0
LWPOLYLINE
  5
65
100
AcDbEntity
  8
0
 62
-1
420
0
370
1
 48
1.0
  6
CONTINUOUS
100
AcDbPolyline
 90
6
 70
0
 10
191.49903869628906
 20
231.728515625
 30
0.0
 10
192.00907897949219
 20
231.43402099609375
 30
0.0
 10
191.71461486816406
 20
230.92398071289062
 30
0.0
 10
191.20454406738281
 20
231.21844482421875
 30
0.0
 10
191.49903869628906
 20
231.728515625
 30
0.0
 10
191.49903869628906
 20
231.728515625
 30
0.0
  0
LWPOLYLINE
  5
66
100
AcDbEntity
  8
0
 62
-1
420
0
370
1
 48
1.0
  6
CONTINUOUS
100
AcDbPolyline
 90
11
 70
0
 10
191.89237976074219
 20
230.60699462890625
 30
0.0
 10
191.83863830566406
 20
230.8074951171875
 30
0.0
 10
192.23539733886719
 20
231.49468994140625
 30
0.0
 10
191.43843078613281
 20
231.95480346679687
 30
0.0
 10
190.97828674316406
 20
231.1578369140625
 30
0.0
 10
191.65815734863281
 20
230.76531982421875
 30
0.0
 10
191.71284484863281
 20
230.56124877929687
 30
0.0
 10
191.77000427246094
 20
228.94097900390625
 30
0.0
 10
192.65657043457031
 20
229.17852783203125
 30
0.0
 10
191.89237976074219
 20
230.60699462890625
 30
0.0
 10
191.89237976074219
 20
230.60699462890625
 30
0.0
  0
ENDSEC
  0
SECTION
  2
OBJECTS
  0
DICTIONARY
  5
C
100
AcDbDictionary
280
0
281
1
  3
ACAD_GROUP
350
D
  3
ACAD_LAYOUT
350
1A
  3
ACAD_MLINESTYLE
350
17
  3
ACAD_PLOTSETTINGS
350
19
  3
ACAD_PLOTSTYLENAME
350
E
  3
AcDbVariableDictionary
350
67
  0
DICTIONARY
  5
D
100
AcDbDictionary
280
0
281
1
  0
ACDBDICTIONARYWDFLT
  5
E
100
AcDbDictionary
281
1
  3
Normal
350
F
100
AcDbDictionaryWithDefault
340
F
  0
ACDBPLACEHOLDER
  5
F
  0
DICTIONARY
  5
17
100
AcDbDictionary
280
0
281
1
  3
Standard
350
18
  0
MLINESTYLE
  5
18
100
AcDbMlineStyle
  2
STANDARD
 70
0
  3

 62
256
 51
90.0
 52
90.0
 71
2
 49
0.5
 62
256
  6
BYLAYER
 49
-0.5
 62
256
  6
BYLAYER
  0
DICTIONARY
  5
19
100
AcDbDictionary
280
0
281
1
  0
DICTIONARY
  5
1A
100
AcDbDictionary
281
1
  3
Layout1
350
1E
  3
Layout2
350
26
  3
Model
350
22
  0
LAYOUT
  5
1E
100
AcDbPlotSettings
  1

  2
none_device
  4

  6

 40
0.0
 41
0.0
 42
0.0
 43
0.0
 44
0.0
 45
0.0
 46
0.0
 47
0.0
 48
0.0
 49
0.0
140
0.0
141
0.0
142
1.0
143
1.0
 70
688
 72
0
 73
0
 74
5
  7

 75
16
147
1.0
148
0.0
149
0.0
100
AcDbLayout
  1
Layout1
 70
1
 71
1
 10
0.0
 20
0.0
 11
420.0
 21
297.0
 12
0.0
 22
0.0
 32
0.0
 14
100000000000000000000.0
 24
100000000000000000000.0
 34
100000000000000000000.0
 15
-100000000000000000000.0
 25
-100000000000000000000.0
 35
-100000000000000000000.0
146
0.0
 13
0.0
 23
0.0
 33
0.0
 16
1.0
 26
0.0
 36
0.0
 17
0.0
 27
1.0
 37
0.0
 76
0
330
1B
  0
LAYOUT
  5
22
100
AcDbPlotSettings
  1

  2
none_device
  4

  6

 40
0.0
 41
0.0
 42
0.0
 43
0.0
 44
0.0
 45
0.0
 46
0.0
 47
0.0
 48
0.0
 49
0.0
140
0.0
141
0.0
142
1.0
143
1.0
 70
1712
 72
0
 73
0
 74
0
  7

 75
0
147
1.0
148
0.0
149
0.0
100
AcDbLayout
  1
Model
 70
1
 71
0
 10
0.0
 20
0.0
 11
12.0
 21
9.0
 12
0.0
 22
0.0
 32
0.0
 14
0.0
 24
0.0
 34
0.0
 15
0.0
 25
0.0
 35
0.0
146
0.0
 13
0.0
 23
0.0
 33
0.0
 16
1.0
 26
0.0
 36
0.0
 17
0.0
 27
1.0
 37
0.0
 76
0
330
1F
  0
LAYOUT
  5
26
100
AcDbPlotSettings
  1

  2
none_device
  4

  6

 40
0.0
 41
0.0
 42
0.0
 43
0.0
 44
0.0
 45
0.0
 46
0.0
 47
0.0
 48
0.0
 49
0.0
140
0.0
141
0.0
142
1.0
143
1.0
 70
688
 72
0
 73
0
 74
5
  7

 75
16
147
1.0
148
0.0
149
0.0
100
AcDbLayout
  1
Layout2
 70
1
 71
2
 10
0.0
 20
0.0
 11
12.0
 21
9.0
 12
0.0
 22
0.0
 32
0.0
 14
0.0
 24
0.0
 34
0.0
 15
0.0
 25
0.0
 35
0.0
146
0.0
 13
0.0
 23
0.0
 33
0.0
 16
1.0
 26
0.0
 36
0.0
 17
0.0
 27
1.0
 37
0.0
 76
0
330
23
  0
DICTIONARY
  5
67
100
AcDbDictionary
281
1
  3
DIMASSOC
350
69
  3
HIDETEXT
350
68
  0
DICTIONARYVAR
  5
68
100
DictionaryVariables
280
0
  1
2
  0
DICTIONARYVAR
  5
69
100
DictionaryVariables
280
0
  1
1
  0
ENDSEC
  0
EOF
